<svg width="185" height="39" viewBox="0 0 185 39" fill="none" xmlns="http://www.w3.org/2000/svg">
<g id="Frame 1000001795">
<g id="Group 228">
<g id="Group 15954">
<g id="TOGETHER WE GROW" opacity="0.8">
<path d="M7.86716 33.5754V38.9258H7.16897V33.5754H7.86716ZM9.58692 33.5754V34.156H5.45288V33.5754H9.58692Z" fill="#303030"/>
<path d="M21.1252 36.0816V36.4197C21.1252 36.8214 21.0749 37.1816 20.9745 37.5C20.874 37.8185 20.7295 38.0892 20.5409 38.3121C20.3522 38.5351 20.1256 38.7053 19.8611 38.8229C19.5989 38.9405 19.3049 38.9993 18.9791 38.9993C18.6631 38.9993 18.3728 38.9405 18.1082 38.8229C17.8461 38.7053 17.6183 38.5351 17.4247 38.3121C17.2336 38.0892 17.0854 37.8185 16.9801 37.5C16.8747 37.1816 16.8221 36.8214 16.8221 36.4197V36.0816C16.8221 35.6798 16.8735 35.3209 16.9764 35.0049C17.0818 34.6864 17.23 34.4157 17.4211 34.1928C17.6121 33.9674 17.8387 33.7959 18.1009 33.6783C18.3655 33.5607 18.6558 33.502 18.9718 33.502C19.2976 33.502 19.5916 33.5607 19.8537 33.6783C20.1183 33.7959 20.3449 33.9674 20.5335 34.1928C20.7246 34.4157 20.8704 34.6864 20.9708 35.0049C21.0737 35.3209 21.1252 35.6798 21.1252 36.0816ZM20.4233 36.4197V36.0742C20.4233 35.7558 20.3902 35.474 20.3241 35.2291C20.2604 34.9841 20.1661 34.7783 20.0411 34.6117C19.9162 34.4451 19.7631 34.319 19.5818 34.2332C19.4029 34.1475 19.1996 34.1046 18.9718 34.1046C18.7513 34.1046 18.5516 34.1475 18.3728 34.2332C18.1964 34.319 18.0445 34.4451 17.9171 34.6117C17.7922 34.7783 17.6954 34.9841 17.6268 35.2291C17.5582 35.474 17.5239 35.7558 17.5239 36.0742V36.4197C17.5239 36.7406 17.5582 37.0248 17.6268 37.2722C17.6954 37.5172 17.7934 37.7242 17.9208 37.8932C18.0507 38.0598 18.2038 38.186 18.3802 38.2717C18.559 38.3575 18.7586 38.4003 18.9791 38.4003C19.2094 38.4003 19.414 38.3575 19.5928 38.2717C19.7716 38.186 19.9223 38.0598 20.0448 37.8932C20.1697 37.7242 20.264 37.5172 20.3277 37.2722C20.3914 37.0248 20.4233 36.7406 20.4233 36.4197Z" fill="#303030"/>
<path d="M32.8692 36.2617V38.2203C32.803 38.3183 32.6977 38.4285 32.5531 38.551C32.4086 38.671 32.2089 38.7764 31.9542 38.867C31.7018 38.9552 31.376 38.9993 30.9767 38.9993C30.6509 38.9993 30.3508 38.943 30.0764 38.8303C29.8045 38.7151 29.5681 38.5485 29.3672 38.3305C29.1687 38.11 29.0144 37.843 28.9042 37.5294C28.7964 37.2134 28.7425 36.8557 28.7425 36.4564V36.0412C28.7425 35.6419 28.789 35.2854 28.8821 34.9718C28.9777 34.6583 29.1173 34.3925 29.301 34.1744C29.4848 33.9539 29.7101 33.7874 29.9772 33.6747C30.2442 33.5595 30.5504 33.502 30.8959 33.502C31.305 33.502 31.6467 33.573 31.9211 33.7151C32.1979 33.8547 32.4135 34.0483 32.5678 34.2957C32.7246 34.5431 32.8251 34.8248 32.8692 35.1409H32.16C32.1281 34.9473 32.0644 34.7709 31.9689 34.6117C31.8758 34.4525 31.7423 34.3251 31.5683 34.2295C31.3944 34.1316 31.1702 34.0826 30.8959 34.0826C30.6484 34.0826 30.4341 34.1279 30.2528 34.2185C30.0715 34.3092 29.9221 34.439 29.8045 34.608C29.6869 34.7771 29.5987 34.9816 29.5399 35.2217C29.4835 35.4618 29.4554 35.7325 29.4554 36.0338V36.4564C29.4554 36.7651 29.4909 37.0407 29.5619 37.2832C29.6354 37.5257 29.7395 37.7328 29.8743 37.9042C30.009 38.0733 30.1695 38.2019 30.3557 38.2901C30.5443 38.3783 30.7525 38.4224 30.9804 38.4224C31.2327 38.4224 31.4373 38.4016 31.594 38.3599C31.7508 38.3158 31.8733 38.2644 31.9615 38.2056C32.0497 38.1443 32.1171 38.0868 32.1636 38.0329V36.8349H30.9253V36.2617H32.8692Z" fill="#303030"/>
<path d="M44.1722 38.3489V38.9258H41.339V38.3489H44.1722ZM41.4823 33.5754V38.9258H40.7731V33.5754H41.4823ZM43.7974 35.8758V36.4527H41.339V35.8758H43.7974ZM44.1355 33.5754V34.156H41.339V33.5754H44.1355Z" fill="#303030"/>
<path d="M53.829 33.5754V38.9258H53.1308V33.5754H53.829ZM55.5488 33.5754V34.156H51.4147V33.5754H55.5488Z" fill="#303030"/>
<path d="M66.5652 35.8758V36.4527H63.6695V35.8758H66.5652ZM63.7798 33.5754V38.9258H63.0706V33.5754H63.7798ZM67.1825 33.5754V38.9258H66.477V33.5754H67.1825Z" fill="#303030"/>
<path d="M78.5701 38.3489V38.9258H75.7369V38.3489H78.5701ZM75.8802 33.5754V38.9258H75.171V33.5754H75.8802ZM78.1953 35.8758V36.4527H75.7369V35.8758H78.1953ZM78.5334 33.5754V34.156H75.7369V33.5754H78.5334Z" fill="#303030"/>
<path d="M86.1764 33.5754H87.9476C88.3494 33.5754 88.6887 33.6367 88.9655 33.7592C89.2448 33.8817 89.4567 34.063 89.6012 34.303C89.7482 34.5407 89.8217 34.8334 89.8217 35.1813C89.8217 35.4263 89.7715 35.6504 89.6711 35.8538C89.5731 36.0546 89.431 36.2261 89.2448 36.3682C89.0611 36.5079 88.8406 36.612 88.5833 36.6806L88.3849 36.7577H86.7203L86.7129 36.1808H87.9697C88.2244 36.1808 88.4363 36.1367 88.6054 36.0485C88.7744 35.9579 88.9018 35.8366 88.9876 35.6847C89.0733 35.5328 89.1162 35.365 89.1162 35.1813C89.1162 34.9755 89.0758 34.7954 88.9949 34.6411C88.9141 34.4868 88.7867 34.368 88.6127 34.2847C88.4413 34.1989 88.2195 34.156 87.9476 34.156H86.8856V38.9258H86.1764V33.5754ZM89.3036 38.9258L88.0027 36.5005L88.7413 36.4968L90.0606 38.8817V38.9258H89.3036Z" fill="#303030"/>
<path d="M107.544 37.3089L108.606 33.5754H109.121L108.823 35.027L107.68 38.9258H107.169L107.544 37.3089ZM106.445 33.5754L107.291 37.2354L107.544 38.9258H107.037L105.74 33.5754H106.445ZM110.495 37.2318L111.322 33.5754H112.031L110.737 38.9258H110.23L110.495 37.2318ZM109.198 33.5754L110.23 37.3089L110.605 38.9258H110.094L108.992 35.027L108.691 33.5754H109.198Z" fill="#303030"/>
<path d="M122.944 38.3489V38.9258H120.111V38.3489H122.944ZM120.255 33.5754V38.9258H119.545V33.5754H120.255ZM122.57 35.8758V36.4527H120.111V35.8758H122.57ZM122.908 33.5754V34.156H120.111V33.5754H122.908Z" fill="#303030"/>
<path d="M143.1 36.2617V38.2203C143.033 38.3183 142.928 38.4285 142.784 38.551C142.639 38.671 142.439 38.7764 142.185 38.867C141.932 38.9552 141.606 38.9993 141.207 38.9993C140.881 38.9993 140.581 38.943 140.307 38.8303C140.035 38.7151 139.798 38.5485 139.598 38.3305C139.399 38.11 139.245 37.843 139.135 37.5294C139.027 37.2134 138.973 36.8557 138.973 36.4564V36.0412C138.973 35.6419 139.019 35.2854 139.113 34.9718C139.208 34.6583 139.348 34.3925 139.531 34.1744C139.715 33.9539 139.941 33.7874 140.208 33.6747C140.475 33.5595 140.781 33.502 141.126 33.502C141.535 33.502 141.877 33.573 142.151 33.7151C142.428 33.8547 142.644 34.0483 142.798 34.2957C142.955 34.5431 143.055 34.8248 143.1 35.1409H142.39C142.359 34.9473 142.295 34.7709 142.199 34.6117C142.106 34.4525 141.973 34.3251 141.799 34.2295C141.625 34.1316 141.401 34.0826 141.126 34.0826C140.879 34.0826 140.664 34.1279 140.483 34.2185C140.302 34.3092 140.152 34.439 140.035 34.608C139.917 34.7771 139.829 34.9816 139.77 35.2217C139.714 35.4618 139.686 35.7325 139.686 36.0338V36.4564C139.686 36.7651 139.721 37.0407 139.792 37.2832C139.866 37.5257 139.97 37.7328 140.105 37.9042C140.239 38.0733 140.4 38.2019 140.586 38.2901C140.775 38.3783 140.983 38.4224 141.211 38.4224C141.463 38.4224 141.668 38.4016 141.824 38.3599C141.981 38.3158 142.104 38.2644 142.192 38.2056C142.28 38.1443 142.347 38.0868 142.394 38.0329V36.8349H141.156V36.2617H143.1Z" fill="#303030"/>
<path d="M151.004 33.5754H152.775C153.176 33.5754 153.516 33.6367 153.793 33.7592C154.072 33.8817 154.284 34.063 154.428 34.303C154.575 34.5407 154.649 34.8334 154.649 35.1813C154.649 35.4263 154.599 35.6504 154.498 35.8538C154.4 36.0546 154.258 36.2261 154.072 36.3682C153.888 36.5079 153.668 36.612 153.41 36.6806L153.212 36.7577H151.547L151.54 36.1808H152.797C153.052 36.1808 153.263 36.1367 153.432 36.0485C153.602 35.9579 153.729 35.8366 153.815 35.6847C153.9 35.5328 153.943 35.365 153.943 35.1813C153.943 34.9755 153.903 34.7954 153.822 34.6411C153.741 34.4868 153.614 34.368 153.44 34.2847C153.268 34.1989 153.047 34.156 152.775 34.156H151.713V38.9258H151.004V33.5754ZM154.131 38.9258L152.83 36.5005L153.568 36.4968L154.888 38.8817V38.9258H154.131Z" fill="#303030"/>
<path d="M166.488 36.0816V36.4197C166.488 36.8214 166.438 37.1816 166.338 37.5C166.237 37.8185 166.093 38.0892 165.904 38.3121C165.715 38.5351 165.489 38.7053 165.224 38.8229C164.962 38.9405 164.668 38.9993 164.342 38.9993C164.026 38.9993 163.736 38.9405 163.471 38.8229C163.209 38.7053 162.981 38.5351 162.788 38.3121C162.597 38.0892 162.449 37.8185 162.343 37.5C162.238 37.1816 162.185 36.8214 162.185 36.4197V36.0816C162.185 35.6798 162.237 35.3209 162.34 35.0049C162.445 34.6864 162.593 34.4157 162.784 34.1928C162.975 33.9674 163.202 33.7959 163.464 33.6783C163.729 33.5607 164.019 33.502 164.335 33.502C164.661 33.502 164.955 33.5607 165.217 33.6783C165.482 33.7959 165.708 33.9674 165.897 34.1928C166.088 34.4157 166.234 34.6864 166.334 35.0049C166.437 35.3209 166.488 35.6798 166.488 36.0816ZM165.787 36.4197V36.0742C165.787 35.7558 165.753 35.474 165.687 35.2291C165.624 34.9841 165.529 34.7783 165.404 34.6117C165.279 34.4451 165.126 34.319 164.945 34.2332C164.766 34.1475 164.563 34.1046 164.335 34.1046C164.115 34.1046 163.915 34.1475 163.736 34.2332C163.56 34.319 163.408 34.4451 163.28 34.6117C163.155 34.7783 163.059 34.9841 162.99 35.2291C162.921 35.474 162.887 35.7558 162.887 36.0742V36.4197C162.887 36.7406 162.921 37.0248 162.99 37.2722C163.059 37.5172 163.157 37.7242 163.284 37.8932C163.414 38.0598 163.567 38.186 163.743 38.2717C163.922 38.3575 164.122 38.4003 164.342 38.4003C164.573 38.4003 164.777 38.3575 164.956 38.2717C165.135 38.186 165.286 38.0598 165.408 37.8932C165.533 37.7242 165.627 37.5172 165.691 37.2722C165.755 37.0248 165.787 36.7406 165.787 36.4197Z" fill="#303030"/>
<path d="M175.686 37.3089L176.748 33.5754H177.262L176.965 35.027L175.822 38.9258H175.311L175.686 37.3089ZM174.587 33.5754L175.432 37.2354L175.686 38.9258H175.179L173.882 33.5754H174.587ZM178.637 37.2318L179.463 33.5754H180.173L178.879 38.9258H178.372L178.637 37.2318ZM177.339 33.5754L178.372 37.3089L178.747 38.9258H178.236L177.134 35.027L176.832 33.5754H177.339Z" fill="#303030"/>
</g>
<path id="Ellipse 74" d="M129.22 7.25239C134.056 7.25239 137.975 11.172 137.975 16.0071C137.975 20.8421 134.056 24.7617 129.22 24.7617C124.385 24.7617 120.466 20.8421 120.466 16.0071C120.466 11.172 124.385 7.25239 129.22 7.25239ZM129.22 20.3912C131.642 20.3912 133.605 18.4283 133.605 16.0071C133.605 13.5858 131.642 11.6229 129.22 11.6229C126.799 11.6229 124.836 13.5858 124.836 16.0071C124.836 18.4283 126.799 20.3912 129.22 20.3912Z" fill="#E17D08"/>
<g id="llar">
<path d="M145.072 1.01758V24.2028H140.415V1.01758H145.072Z" fill="#E17D08"/>
<path d="M153.061 1.01758V24.2028H148.404V1.01758H153.061Z" fill="#E17D08"/>
<path d="M155.513 18.4561C155.513 14.789 158.185 12.9555 163.527 12.9555C164.781 12.9555 166.034 13.0727 167.288 13.307V11.9186C167.288 10.2667 166.099 9.44071 163.72 9.44071C161.705 9.44071 159.467 9.73361 157.007 10.3194V6.62888C159.467 6.04309 161.705 5.75019 163.72 5.75019C169.203 5.75019 171.945 7.77705 171.945 11.8308V24.2028H169.239L167.587 22.5509C165.981 23.6522 164.212 24.2028 162.279 24.2028C157.769 24.2028 155.513 22.2872 155.513 18.4561ZM167.288 16.4703C166.116 16.236 164.863 16.1188 163.527 16.1188C161.289 16.1188 160.17 16.8803 160.17 18.4034C160.17 20.0436 161.108 20.8638 162.982 20.8638C164.529 20.8638 165.964 20.3834 167.288 19.4227V16.4703Z" fill="#E17D08"/>
<path d="M175.276 24.2028V5.75019H178.879L179.459 8.10509C181.076 6.53516 182.786 5.75019 184.59 5.75019V9.51101C182.856 9.51101 181.304 10.2315 179.933 11.6726V24.2028H175.276Z" fill="#E17D08"/>
</g>
<path id="Ellipse 75" d="M119.738 23.2931C117.925 24.2578 115.892 24.7372 113.839 24.6847C111.785 24.6322 109.78 24.0496 108.017 22.9936C106.255 21.9375 104.796 20.4438 103.782 18.6574C102.767 16.8711 102.231 14.8527 102.227 12.7984C102.223 10.744 102.749 8.72336 103.756 6.93261C104.763 5.14186 106.216 3.64182 107.973 2.57811C109.731 1.51441 111.733 0.923155 113.787 0.861756C115.84 0.800357 117.875 1.27089 119.693 2.22769L117.547 6.30393C116.432 5.71699 115.184 5.42834 113.925 5.46601C112.665 5.50367 111.436 5.86637 110.358 6.51889C109.28 7.17141 108.389 8.09158 107.771 9.19009C107.154 10.2886 106.831 11.5281 106.833 12.7884C106.836 14.0486 107.165 15.2867 107.787 16.3825C108.409 17.4784 109.304 18.3947 110.385 19.0425C111.466 19.6903 112.696 20.0477 113.956 20.0799C115.216 20.1121 116.463 19.818 117.575 19.2262L119.738 23.2931Z" fill="#E17D08"/>
<g id="ream">
<path d="M22.2269 24.2026V5.75H25.8296L26.4095 8.10491C28.0263 6.53497 29.7369 5.75 31.5411 5.75V9.51082C29.8071 9.51082 28.2548 10.2313 26.884 11.6724V24.2026H22.2269Z" fill="white"/>
<path d="M41.2426 5.75C46.8428 5.75 49.643 8.60869 49.643 14.3261C49.643 15.0876 49.5902 15.8491 49.4848 16.6107H37.2358C37.2358 19.2116 39.1455 20.5121 42.9649 20.5121C44.8277 20.5121 46.6905 20.3364 48.5534 19.9849V23.6754C46.9248 24.0269 44.9449 24.2026 42.6134 24.2026C35.9236 24.2026 32.5787 21.0569 32.5787 14.7654C32.5787 8.75514 35.4667 5.75 41.2426 5.75ZM37.2358 13.3771H45.1089V13.2365C45.1089 10.6824 43.8201 9.40538 41.2426 9.40538C38.7823 9.40538 37.4466 10.7293 37.2358 13.3771Z" fill="white"/>
<path d="M51.5416 18.4559C51.5416 14.7889 54.2129 12.9553 59.5553 12.9553C60.809 12.9553 62.0626 13.0725 63.3162 13.3068V11.9184C63.3162 10.2665 62.127 9.44052 59.7487 9.44052C57.7335 9.44052 55.4958 9.73342 53.0354 10.3192V6.6287C55.4958 6.0429 57.7335 5.75 59.7487 5.75C65.2317 5.75 67.9733 7.77686 67.9733 11.8306V24.2026H65.2669L63.6149 22.5507C62.0098 23.652 60.2407 24.2026 58.3076 24.2026C53.797 24.2026 51.5416 22.2871 51.5416 18.4559ZM63.3162 16.4701C62.1446 16.2358 60.891 16.1186 59.5553 16.1186C57.3176 16.1186 56.1987 16.8801 56.1987 18.4032C56.1987 20.0435 57.136 20.8636 59.0106 20.8636C60.5571 20.8636 61.9923 20.3832 63.3162 19.4225V16.4701Z" fill="white"/>
<path d="M71.6645 24.2026V5.75H75.2671L75.8119 8.42124C77.4639 6.64041 79.4497 5.75 81.7695 5.75C84.0892 5.75 85.6768 6.59355 86.532 8.28064C88.4183 6.59355 90.3924 5.75 92.4544 5.75C96.6956 5.75 98.8162 8.08733 98.8162 12.762V24.2026H94.1591V12.5863C94.1591 10.536 93.2335 9.51082 91.3824 9.51082C89.9999 9.51082 88.6702 10.1318 87.3931 11.3737V24.2026H82.736V12.639C82.736 10.5535 81.8808 9.51082 80.1703 9.51082C78.8112 9.51082 77.5283 10.1318 76.3216 11.3737V24.2026H71.6645Z" fill="white"/>
</g>
<path id="Ellipse 76" d="M19.0599 23.2931C17.2461 24.2578 15.2137 24.7372 13.16 24.6847C11.1063 24.6322 9.10104 24.0496 7.33888 22.9936C5.57673 21.9375 4.11754 20.4438 3.10295 18.6574C2.08837 16.8711 1.55286 14.8527 1.5484 12.7984C1.54394 10.744 2.07069 8.72336 3.07751 6.93261C4.08433 5.14186 5.53702 3.64182 7.29458 2.57811C9.05213 1.51441 11.0548 0.923155 13.1083 0.861756C15.1618 0.800357 17.1962 1.27089 19.0142 2.22769L16.8689 6.30393C15.7536 5.71699 14.5056 5.42834 13.246 5.46601C11.9863 5.50367 10.7578 5.86637 9.67961 6.51889C8.60147 7.17141 7.71033 8.09158 7.09271 9.19009C6.47509 10.2886 6.15196 11.5281 6.15469 12.7884C6.15743 14.0486 6.48593 15.2867 7.10832 16.3825C7.7307 17.4784 8.62582 18.3947 9.70679 19.0425C10.7878 19.6903 12.0179 20.0477 13.2777 20.0799C14.5375 20.1121 15.7843 19.818 16.8969 19.2262L19.0599 23.2931Z" fill="white"/>
</g>
</g>
</g>
</svg>
