<svg width="155" height="32" viewBox="0 0 155 32" fill="none" xmlns="http://www.w3.org/2000/svg">
<path opacity="0.8" d="M8.50793 27.1018L8.50793 31.3855L7.9521 31.3855L7.9521 27.1018L8.50793 27.1018ZM9.8864 27.1018L9.8864 27.5688L6.57362 27.5688L6.57362 27.1018L9.8864 27.1018ZM19.3949 29.1103L19.3949 29.3771C19.3949 29.6958 19.3578 29.9848 19.2763 30.2442C19.1948 30.4961 19.0836 30.7185 18.928 30.8963C18.7798 31.0742 18.5945 31.2076 18.387 31.304C18.1795 31.4003 17.9423 31.4448 17.6829 31.4448C17.4236 31.4448 17.1938 31.4003 16.9863 31.304C16.7788 31.2076 16.5935 31.0742 16.4379 30.8963C16.2822 30.7185 16.1637 30.5036 16.0821 30.2442C16.0006 29.9922 15.9561 29.7032 15.9561 29.3771L15.9561 29.1103C15.9561 28.7916 16.0006 28.5025 16.0821 28.2506C16.1637 27.9986 16.2822 27.7763 16.4379 27.5984C16.5935 27.4205 16.7714 27.2797 16.9789 27.1834C17.1938 27.087 17.4235 27.0426 17.6755 27.0426C17.9275 27.0426 18.1721 27.087 18.3796 27.1834C18.5945 27.2797 18.7724 27.4131 18.9206 27.5984C19.0762 27.7763 19.1874 27.9912 19.2689 28.2506C19.3504 28.5025 19.3949 28.7916 19.3949 29.1103ZM18.8317 29.3771L18.8317 29.1029C18.8317 28.8509 18.802 28.6211 18.7501 28.4284C18.6982 28.2358 18.6241 28.0653 18.5204 27.9319C18.424 27.7985 18.298 27.6947 18.1498 27.628C18.009 27.5613 17.846 27.5243 17.6607 27.5243C17.4754 27.5243 17.3272 27.5613 17.179 27.628C17.0381 27.6947 16.9122 27.7985 16.8158 27.9319C16.7195 28.0653 16.638 28.2283 16.5861 28.4284C16.5342 28.6211 16.5045 28.8509 16.5045 29.1029L16.5045 29.3771C16.5045 29.6365 16.5342 29.8588 16.5861 30.0589C16.638 30.2516 16.7195 30.422 16.8232 30.5554C16.927 30.6888 17.053 30.7926 17.1938 30.8593C17.3346 30.926 17.4976 30.963 17.6755 30.963C17.8534 30.963 18.0238 30.926 18.1647 30.8593C18.3055 30.7926 18.4315 30.6888 18.5278 30.5554C18.6241 30.422 18.7057 30.2516 18.7575 30.0589C18.8094 29.8588 18.8317 29.6365 18.8317 29.3771ZM29.0664 29.2511L29.0664 30.8222C29.0146 30.9038 28.9256 30.9853 28.8145 31.089C28.6959 31.1854 28.5403 31.2669 28.3327 31.341C28.1327 31.4151 27.8659 31.4448 27.5472 31.4448C27.2878 31.4448 27.0432 31.4003 26.8283 31.3114C26.6134 31.2224 26.4207 31.0816 26.2576 30.9112C26.102 30.7333 25.976 30.5184 25.8871 30.2664C25.7981 30.0144 25.7611 29.7254 25.7611 29.4067L25.7611 29.0732C25.7611 28.7545 25.7981 28.4655 25.8722 28.2209C25.9464 27.969 26.0649 27.754 26.2058 27.5836C26.354 27.4057 26.5318 27.2723 26.7468 27.1834C26.9617 27.0944 27.2062 27.0426 27.4805 27.0426C27.8065 27.0426 28.0808 27.1018 28.3031 27.213C28.5254 27.3242 28.6959 27.4798 28.8219 27.6799C28.9479 27.88 29.0294 28.1024 29.0664 28.3543L28.4958 28.3543C28.4736 28.1987 28.4217 28.0579 28.3401 27.9319C28.266 27.8059 28.1623 27.7021 28.0215 27.628C27.8807 27.5465 27.7028 27.5095 27.4805 27.5095C27.2803 27.5095 27.1099 27.5465 26.9617 27.6206C26.8135 27.6947 26.6949 27.7985 26.6059 27.9319C26.5096 28.0653 26.4429 28.2283 26.391 28.421C26.3466 28.6137 26.3243 28.8286 26.3243 29.0732L26.3243 29.4141C26.3243 29.6587 26.354 29.881 26.4058 30.0737C26.4651 30.2664 26.5467 30.4294 26.6578 30.5703C26.769 30.7037 26.895 30.8074 27.0432 30.8815C27.1914 30.9556 27.3619 30.9853 27.5472 30.9853C27.7473 30.9853 27.9103 30.9705 28.0363 30.9334C28.1623 30.8964 28.2586 30.8593 28.3327 30.8074C28.4069 30.7555 28.4587 30.7111 28.4958 30.6666L28.4958 29.7032L27.5027 29.7032L27.5027 29.2437L29.059 29.2437L29.0664 29.2511ZM38.3897 30.9186L38.3897 31.3781L36.1218 31.3781L36.1218 30.9186L38.3897 30.9186ZM36.2404 27.0944L36.2404 31.3781L35.6698 31.3781L35.6698 27.0944L36.2404 27.0944ZM38.0932 28.9324L38.0932 29.3919L36.1293 29.3919L36.1293 28.9324L38.0932 28.9324ZM38.36 27.0944L38.36 27.5613L36.1218 27.5613L36.1218 27.0944L38.36 27.0944ZM46.3937 27.0944L46.3937 31.3781L45.8379 31.3781L45.8379 27.0944L46.3937 27.0944ZM47.7722 27.0944L47.7722 27.5613L44.4594 27.5613L44.4594 27.0944L47.7722 27.0944ZM56.8657 28.9324L56.8657 29.3919L54.546 29.3919L54.546 28.9324L56.8657 28.9324ZM54.6349 27.0944L54.6349 31.3781L54.0642 31.3781L54.0642 27.0944L54.6349 27.0944ZM57.3622 27.0944L57.3622 31.3781L56.799 31.3781L56.799 27.0944L57.3622 27.0944ZM66.7521 30.9186L66.7521 31.3781L64.4843 31.3781L64.4843 30.9186L66.7521 30.9186ZM64.6029 27.0944L64.6029 31.3781L64.0322 31.3781L64.0322 27.0944L64.6029 27.0944ZM66.4557 28.9324L66.4557 29.3919L64.4917 29.3919L64.4917 28.9324L66.4557 28.9324ZM66.7225 27.0944L66.7225 27.5613L64.4843 27.5613L64.4843 27.0944L66.7225 27.0944ZM73.1109 27.0944L74.5264 27.0944C74.8451 27.0944 75.1193 27.1463 75.3416 27.2427C75.564 27.339 75.7344 27.4872 75.853 27.6799C75.9716 27.8726 76.0309 28.1024 76.0309 28.384C76.0309 28.5767 75.9938 28.7619 75.9123 28.925C75.8307 29.088 75.7196 29.2214 75.5714 29.34C75.4231 29.4512 75.2453 29.5327 75.0452 29.592L74.8895 29.6513L73.5555 29.6513L73.5555 29.1918L74.556 29.1918C74.7561 29.1918 74.9266 29.1547 75.0674 29.088C75.2008 29.0139 75.3046 28.9176 75.3713 28.799C75.438 28.673 75.475 28.547 75.475 28.3988C75.475 28.2358 75.4454 28.0875 75.3787 27.969C75.312 27.843 75.2156 27.754 75.0748 27.6873C74.934 27.6206 74.7635 27.5836 74.5412 27.5836L73.6889 27.5836L73.6889 31.4003L73.1183 31.4003L73.1183 27.1167L73.1109 27.0944ZM75.6158 31.3781L74.5783 29.4364L75.1712 29.4364L76.2236 31.341L76.2236 31.3781L75.6158 31.3781ZM90.7642 30.0811L91.6165 27.0944L92.0315 27.0944L91.7944 28.258L90.8828 31.3781L90.4752 31.3781L90.7716 30.0811L90.7642 30.0811ZM89.8823 27.0944L90.5567 30.0218L90.7568 31.3707L90.3492 31.3707L89.3116 27.087L89.8749 27.087L89.8823 27.0944ZM93.1209 30.0218L93.7806 27.0944L94.3512 27.0944L93.3136 31.3781L92.906 31.3781L93.1209 30.0218ZM92.0834 27.0944L92.9134 30.0811L93.2099 31.3781L92.8023 31.3781L91.9203 28.258L91.6758 27.0944L92.0834 27.0944ZM103.363 30.9186L103.363 31.3781L101.095 31.3781L101.095 30.9186L103.363 30.9186ZM101.214 27.0944L101.214 31.3781L100.643 31.3781L100.643 27.0944L101.214 27.0944ZM103.067 28.9324L103.067 29.3919L101.103 29.3919L101.103 28.9324L103.067 28.9324ZM103.334 27.0944L103.334 27.5613L101.095 27.5613L101.095 27.0944L103.334 27.0944ZM120.038 29.2437L120.038 30.8148C119.986 30.8964 119.897 30.9779 119.786 31.0816C119.668 31.178 119.512 31.2595 119.305 31.3336C119.104 31.4077 118.838 31.4374 118.519 31.4374C118.26 31.4374 118.015 31.3929 117.8 31.304C117.585 31.215 117.392 31.0742 117.229 30.9038C117.066 30.7259 116.948 30.511 116.859 30.259C116.77 30.007 116.733 29.718 116.733 29.3993L116.733 29.0658C116.733 28.7471 116.77 28.4581 116.844 28.2135C116.918 27.9615 117.037 27.7466 117.178 27.5762C117.326 27.3983 117.504 27.2649 117.719 27.176C117.933 27.087 118.178 27.0352 118.452 27.0352C118.778 27.0352 119.053 27.0945 119.275 27.2056C119.497 27.3168 119.668 27.4724 119.794 27.6725C119.92 27.8726 120.001 28.0949 120.038 28.3469L119.468 28.3469C119.445 28.1913 119.393 28.0505 119.312 27.9245C119.238 27.7985 119.134 27.6948 118.993 27.6206C118.852 27.5391 118.675 27.5021 118.452 27.5021C118.252 27.5021 118.082 27.5391 117.933 27.6132C117.785 27.6873 117.667 27.7911 117.578 27.9245C117.481 28.0579 117.415 28.2209 117.363 28.4136C117.318 28.6063 117.296 28.8212 117.296 29.0658L117.296 29.4067C117.296 29.6513 117.326 29.8736 117.378 30.0663C117.437 30.259 117.518 30.4221 117.63 30.5629C117.741 30.6963 117.867 30.8 118.015 30.8741C118.163 30.9482 118.334 30.9779 118.519 30.9779C118.719 30.9779 118.882 30.9631 119.008 30.926C119.134 30.8889 119.23 30.8519 119.305 30.8C119.379 30.7481 119.431 30.7037 119.468 30.6592L119.468 29.6958L118.474 29.6958L118.474 29.2363L120.031 29.2363L120.038 29.2437ZM126.634 27.0944L128.05 27.0944C128.368 27.0944 128.643 27.1463 128.865 27.2427C129.087 27.339 129.258 27.4872 129.376 27.6799C129.495 27.8726 129.554 28.1024 129.554 28.384C129.554 28.5767 129.517 28.7619 129.436 28.925C129.354 29.088 129.243 29.2214 129.095 29.34C128.946 29.4512 128.769 29.5327 128.568 29.592L128.413 29.6513L127.079 29.6513L127.079 29.1918L128.079 29.1918C128.279 29.1918 128.45 29.1547 128.591 29.088C128.724 29.0139 128.828 28.9176 128.895 28.799C128.961 28.673 128.998 28.547 128.998 28.3988C128.998 28.2358 128.969 28.0875 128.902 27.969C128.835 27.843 128.739 27.754 128.598 27.6873C128.457 27.6206 128.279 27.5836 128.064 27.5836L127.212 27.5836L127.212 31.4003L126.642 31.4003L126.642 27.1167L126.634 27.0944ZM129.139 31.3781L128.102 29.4364L128.694 29.4364L129.747 31.341L129.747 31.3781L129.139 31.3781ZM139.3 29.1029L139.3 29.3697C139.3 29.6883 139.263 29.9774 139.181 30.2368C139.1 30.4888 138.989 30.7111 138.833 30.889C138.685 31.0668 138.499 31.2002 138.292 31.2966C138.084 31.3929 137.847 31.4374 137.588 31.4374C137.328 31.4374 137.099 31.3929 136.891 31.2966C136.684 31.2002 136.498 31.0668 136.343 30.889C136.187 30.7111 136.069 30.4962 135.987 30.2368C135.905 29.9848 135.861 29.6958 135.861 29.3697L135.861 29.1029C135.861 28.7842 135.905 28.4952 135.987 28.2432C136.069 27.9912 136.187 27.7689 136.343 27.591C136.498 27.4131 136.676 27.2723 136.884 27.176C137.099 27.0796 137.328 27.0352 137.58 27.0352C137.832 27.0352 138.077 27.0796 138.284 27.176C138.499 27.2723 138.677 27.4057 138.825 27.591C138.981 27.7689 139.092 27.9838 139.174 28.2432C139.255 28.4952 139.3 28.7842 139.3 29.1029ZM138.737 29.3697L138.737 29.0955C138.737 28.8435 138.707 28.6137 138.655 28.421C138.603 28.2283 138.529 28.0579 138.425 27.9245C138.329 27.7911 138.203 27.6873 138.055 27.6206C137.914 27.5539 137.751 27.5169 137.566 27.5169C137.38 27.5169 137.232 27.5539 137.084 27.6206C136.943 27.6873 136.817 27.7911 136.721 27.9245C136.624 28.0579 136.543 28.2209 136.491 28.421C136.439 28.6137 136.409 28.8435 136.409 29.0955L136.409 29.3697C136.409 29.6291 136.439 29.8514 136.491 30.0515C136.543 30.2442 136.624 30.4146 136.728 30.548C136.832 30.6814 136.958 30.7852 137.099 30.8519C137.239 30.9186 137.403 30.9557 137.58 30.9557C137.758 30.9557 137.929 30.9186 138.07 30.8519C138.21 30.7852 138.336 30.6814 138.433 30.548C138.529 30.4146 138.611 30.2442 138.662 30.0515C138.714 29.8514 138.737 29.6291 138.737 29.3697ZM146.933 30.0811L147.786 27.0944L148.201 27.0944L147.963 28.258L147.052 31.3781L146.644 31.3781L146.941 30.0811L146.933 30.0811ZM146.051 27.0944L146.726 30.0218L146.926 31.3707L146.518 31.3707L145.481 27.087L146.044 27.087L146.051 27.0944ZM149.29 30.0218L149.95 27.0944L150.52 27.0944L149.483 31.3781L149.075 31.3781L149.29 30.0218ZM148.252 27.0944L149.082 30.0811L149.379 31.3781L148.971 31.3781L148.089 28.258L147.845 27.0944L148.252 27.0944Z" fill="white"/>
<path d="M121.928 -1.42377e-06L121.928 20.3732L119.149 20.3732L119.149 -1.54525e-06L121.928 -1.42377e-06ZM127.879 -1.16363e-06L127.879 20.3732L125.1 20.3732L125.1 -1.28512e-06L127.879 -1.16363e-06ZM130.154 15.4078C130.154 12.0357 132.378 10.346 136.824 10.346C138.255 10.346 139.685 10.4497 141.115 10.6572L141.115 9.1083C141.115 7.21846 139.641 6.27724 136.684 6.27724C134.994 6.27724 133.26 6.53663 131.481 7.06282L131.481 4.7135C133.252 4.19472 134.986 3.92792 136.684 3.92792C141.568 3.92792 144.013 5.63247 144.013 9.03418L144.013 20.3732L142.383 20.3732L141.382 18.7428C139.744 19.8322 137.958 20.3732 136.024 20.3732C132.111 20.3732 130.147 18.7205 130.147 15.4078L130.154 15.4078ZM136.824 12.6953C134.312 12.6953 133.052 13.5846 133.052 15.3559C133.052 17.1271 134.045 18.0165 136.024 18.0165C138.003 18.0165 139.73 17.4829 141.115 16.4157L141.115 12.9991C139.685 12.7916 138.255 12.6879 136.824 12.6879L136.824 12.6953ZM146.822 20.3732L146.822 3.92792L148.779 3.92792L149.297 6.02526C150.743 4.62456 152.469 3.92792 154.5 3.92792L154.5 6.33654C152.536 6.33654 150.943 7.03319 149.727 8.41907L149.727 20.3658L146.829 20.3658L146.822 20.3732Z" fill="#9B9B9B"/>
<path d="M100.829 19.2517C99.2796 20.0744 97.5454 20.4894 95.789 20.4375C94.0325 20.393 92.3205 19.8965 90.8161 18.9923C89.3116 18.0882 88.0665 16.8135 87.1994 15.2868C86.3323 13.7601 85.8728 12.0333 85.8728 10.2842C85.8728 8.5278 86.3175 6.801 87.1772 5.2743C88.0369 3.74761 89.2745 2.46549 90.779 1.55392C92.2835 0.642345 93.988 0.138379 95.7445 0.0865014C97.5009 0.0346235 99.2351 0.434838 100.791 1.25747L99.4871 3.74021C98.3606 3.14732 97.1007 2.85828 95.8334 2.89533C94.5587 2.93239 93.321 3.29553 92.2316 3.95512C91.1422 4.61471 90.2454 5.54111 89.6229 6.65278C89.0003 7.76446 88.6742 9.00952 88.6742 10.2842C88.6742 11.559 89.0078 12.804 89.6377 13.9083C90.2677 15.0126 91.1718 15.9389 92.2612 16.5911C93.3507 17.2433 94.5958 17.6065 95.8631 17.6361C97.1378 17.6657 98.3903 17.3693 99.5168 16.7764L100.836 19.2517L100.829 19.2517Z" fill="#9B9B9B"/>
<g clip-path="url(#clip0_1343_19210)">
<path d="M106.511 7.64C106.651 7.57 106.791 7.51 106.931 7.46C106.951 7.46 106.971 7.44 106.991 7.43C107.511 7.24 108.061 7.13 108.641 7.13C110.631 7.13 112.341 8.36 113.101 10.13L115.821 8.86C114.601 6 111.841 4 108.631 4C107.391 4 106.231 4.3 105.181 4.82C105.181 4.82 105.181 4.82 105.191 4.82L106.501 7.64H106.511Z" fill="white"/>
<path d="M115.851 8.86812L113.121 10.1381C113.391 10.7781 113.551 11.4781 113.551 12.2181C113.551 14.2381 112.421 15.9781 110.781 16.7981L109.491 14.0281C109.241 14.1581 108.951 14.2281 108.651 14.2281C107.861 14.2281 107.191 13.7381 106.891 13.0381L104.191 14.2981C103.921 13.6581 103.761 12.9581 103.761 12.2181C103.761 11.9681 103.781 11.7181 103.811 11.4781C104.051 9.78813 105.081 8.36813 106.511 7.64813L105.201 4.82812C102.561 6.15813 100.761 8.96813 100.761 12.2181C100.761 13.4081 101.001 14.5481 101.451 15.5681C102.681 18.4381 105.441 20.4381 108.651 20.4381C109.891 20.4381 111.051 20.1381 112.101 19.6181C114.731 18.2881 116.541 15.4781 116.541 12.2181C116.541 11.0281 116.301 9.88812 115.851 8.86812Z" fill="#9B9B9B"/>
<path d="M106.511 7.64031L105.201 4.82031C105.201 4.82031 105.201 4.82031 105.191 4.82031L106.501 7.64031C106.501 7.64031 106.501 7.64031 106.511 7.64031Z" fill="#9B9B9B"/>
<path d="M108.641 14.2309C108.941 14.2309 109.221 14.1609 109.481 14.0309C110.121 13.7009 110.571 13.0109 110.571 12.2209C110.571 11.9209 110.511 11.6509 110.401 11.4009C110.101 10.7009 109.421 10.2109 108.641 10.2109C108.341 10.2109 108.051 10.2809 107.791 10.4109C107.501 10.5609 107.251 10.7909 107.071 11.0609C106.931 11.2709 106.831 11.5109 106.771 11.7609C106.741 11.9109 106.711 12.0509 106.711 12.2109C106.711 12.5109 106.771 12.7809 106.881 13.0309C107.181 13.7309 107.861 14.2209 108.641 14.2209V14.2309Z" fill="white"/>
<path d="M109.481 14.0287C110.121 13.7087 110.571 13.0188 110.571 12.2188C110.571 13.0088 110.131 13.6987 109.481 14.0287Z" fill="white"/>
<path d="M106.771 11.7703C106.831 11.5103 106.931 11.2803 107.071 11.0703C106.931 11.2803 106.831 11.5203 106.771 11.7703Z" fill="white"/>
<path d="M106.701 12.2188C106.701 12.5188 106.761 12.7887 106.871 13.0387C106.761 12.7887 106.701 12.5087 106.701 12.2188Z" fill="white"/>
</g>
<path d="M80.2256 5.53602C79.2844 4.49846 77.8614 3.96484 75.9938 3.96484C74.2596 3.96484 72.5773 4.65409 70.9987 6.01033C70.2057 4.65409 68.8198 3.96484 66.8707 3.96484C64.9216 3.96484 63.3578 4.63926 61.9794 5.95844L61.9349 3.96484L58.0292 3.96484L58.0292 20.173L62.424 20.173L62.424 9.07113C63.3949 8.09286 64.425 7.60372 65.4996 7.60372C66.1741 7.60372 66.6558 7.79642 66.9819 8.19662C67.3154 8.60423 67.4858 9.23418 67.4858 10.0716L67.4858 20.173L71.8806 20.173L71.8806 9.07855C72.9034 8.10028 73.9854 7.60372 75.0822 7.60372C75.8085 7.60372 76.357 7.80383 76.7053 8.19662C77.061 8.59682 77.2463 9.21193 77.2463 10.0346L77.2463 20.1804L81.6411 20.1804L81.6411 10.1828C81.6411 8.13733 81.1668 6.58098 80.2256 5.54342L80.2256 5.53602Z" fill="white"/>
<path d="M53.3749 5.30626C52.1743 4.41692 50.3586 3.96484 47.9871 3.96484C46.2603 3.96484 44.3111 4.21684 42.2064 4.72079L42.0433 4.75784L42.0433 8.34483L42.2953 8.28555C44.3704 7.78901 46.2825 7.53702 47.9796 7.53702C48.9505 7.53702 49.6768 7.70007 50.1437 8.02616C50.5958 8.34484 50.8181 8.80433 50.8181 9.44169L50.8181 10.3829C49.8176 10.2124 48.8097 10.1235 47.8166 10.1235C45.5043 10.1235 43.7331 10.5311 42.5695 11.3389C41.3763 12.1616 40.7686 13.4066 40.7686 15.0445C40.7686 16.6824 41.28 18.0312 42.2879 18.8909C43.2884 19.7358 44.7928 20.173 46.7568 20.173C48.328 20.173 49.7954 19.7506 51.122 18.9131L51.2702 20.173L55.2203 20.173L55.2203 9.37499C55.2203 7.58149 54.5978 6.21042 53.3824 5.30626L53.3749 5.30626ZM50.8181 15.7634C49.7509 16.5119 48.5874 16.8973 47.3497 16.8973C46.6086 16.8973 46.0453 16.7342 45.6822 16.423C45.3265 16.1117 45.156 15.6448 45.156 15C45.156 14.4146 45.3635 13.9921 45.7785 13.7031C46.2158 13.3992 46.905 13.251 47.8092 13.251C48.869 13.251 49.8769 13.3399 50.8107 13.5178L50.8107 15.7708L50.8181 15.7634Z" fill="white"/>
<path d="M31.4823 3.96484C28.9699 3.96484 27.0504 4.63926 25.7831 5.95844C24.5158 7.27763 23.8784 9.27122 23.8784 11.8874C23.8784 14.5035 24.6195 16.712 26.0869 18.0979C27.5469 19.4764 29.7554 20.173 32.6532 20.173C34.6468 20.173 36.3736 20.0174 37.7669 19.7209L37.9299 19.6839L37.9299 16.1117L37.6854 16.1562C36.1142 16.4526 34.5208 16.6009 32.9496 16.6009C31.3785 16.6009 30.1705 16.334 29.3997 15.8004C28.6883 15.3187 28.3177 14.6221 28.2732 13.6734L38.7007 13.6734L38.7229 13.4956C38.8119 12.836 38.8563 12.169 38.8563 11.5094C38.8563 9.01926 38.2338 7.11458 37.0035 5.86209C35.7733 4.6022 33.9131 3.96484 31.4748 3.96484L31.4823 3.96484ZM34.5727 10.4941L28.2881 10.4941C28.3992 9.53061 28.7031 8.7895 29.1996 8.30037C29.7258 7.77417 30.4966 7.50737 31.4823 7.50737C32.5198 7.50737 33.3054 7.75936 33.8093 8.26332C34.2985 8.75246 34.5579 9.50098 34.5727 10.4867L34.5727 10.4941Z" fill="white"/>
<path d="M13.2658 19.6735L10.4422 15.7826L9.74553 15.7826C8.76726 15.7826 7.84827 15.5084 7.05528 15.0341C5.43965 14.0632 4.35764 12.2549 4.35764 10.1798C4.35764 7.70449 5.90656 5.59971 8.05579 4.86601C8.35965 4.76225 8.68575 4.68073 9.01925 4.63626L9.55286 3.61352L10.6719 1.4643L11.3612 0.152532L11.4353 0.0117186L9.56025 0.0117186C4.26128 0.122885 -0.000117504 4.62885 -0.000117746 10.1724C-0.000117988 15.7159 4.26128 20.2293 9.56025 20.3331L13.7698 20.3331L13.2732 19.6512L13.2658 19.6735Z" fill="#9B9B9B"/>
<path d="M21.8774 9.31942C21.9515 8.86735 21.996 8.40044 21.996 7.92613L21.996 7.91873C21.996 6.85894 21.7959 5.85102 21.4253 4.92462C20.8695 3.52392 19.9505 2.33072 18.7795 1.47103C18.1199 0.989305 17.3862 0.611344 16.6007 0.366776C16.1338 0.218553 15.652 0.12219 15.1481 0.0703122L14.5107 1.28575L14.3403 1.61926L12.7765 4.61335L14.444 4.61335C15.3037 4.62076 16.0819 4.9765 16.6525 5.54716C16.8675 5.76208 17.0453 5.99924 17.1936 6.26604C17.4678 6.75517 17.6234 7.31843 17.6234 7.91873C17.6234 8.27447 17.5641 8.62277 17.4604 8.94145C17.112 10.0309 16.2375 10.8684 15.1481 11.1352C14.9109 11.1945 14.6664 11.2241 14.407 11.2241L10.8496 11.2241L12.9544 14.1219L13.7326 15.1965L14.1698 15.7968L14.1846 15.8116L15.615 17.7755L17.49 20.362L21.8552 20.362L18.535 15.7894L18.0977 15.1891L17.905 14.9222C17.9569 14.8926 18.0088 14.863 18.0607 14.8333C20.0246 13.7068 21.455 11.691 21.8626 9.31201L21.8774 9.31942Z" fill="white"/>
<defs>
<clipPath id="clip0_1343_19210">
<rect width="15.78" height="16.44" fill="white" transform="translate(100.761 4)"/>
</clipPath>
</defs>
</svg>
