<svg width="90" height="73" viewBox="0 0 90 73" fill="none" xmlns="http://www.w3.org/2000/svg">
<g id="noun-saving-4354915 1">
<path id="Vector" d="M22.828 67.8057H11C10.7348 67.8057 10.4804 67.7003 10.2929 67.5128C10.1054 67.3253 10 67.0709 10 66.8057V43.9297C10 43.6645 10.1054 43.4101 10.2929 43.2226C10.4804 43.035 10.7348 42.9297 11 42.9297H22.828C23.0932 42.9297 23.3476 43.035 23.5351 43.2226C23.7226 43.4101 23.828 43.6645 23.828 43.9297V66.8057C23.828 67.0709 23.7226 67.3253 23.5351 67.5128C23.3476 67.7003 23.0932 67.8057 22.828 67.8057ZM12 65.8057H21.828V44.9297H12V65.8057Z" fill="#828282"/>
<path id="Vector_2" d="M53.6869 59.9635H40.6869C40.4217 59.9635 40.1673 59.8581 39.9798 59.6706C39.7923 59.4831 39.6869 59.2287 39.6869 58.9635C39.6869 58.6983 39.7923 58.4439 39.9798 58.2564C40.1673 58.0689 40.4217 57.9635 40.6869 57.9635H53.6869C54.3325 57.9635 54.9515 57.7071 55.408 57.2506C55.8645 56.7941 56.1209 56.175 56.1209 55.5295C56.1209 54.884 55.8645 54.2649 55.408 53.8084C54.9515 53.3519 54.3325 53.0955 53.6869 53.0955H44.7359C44.5737 53.0954 44.4139 53.0559 44.2703 52.9803C44.1267 52.9047 44.0037 52.7953 43.9119 52.6615C39.6819 46.5065 23.0649 47.5885 22.8999 47.5995C22.6359 47.615 22.3763 47.5264 22.1768 47.3527C21.9774 47.1791 21.8539 46.9341 21.8329 46.6705C21.8148 46.4061 21.9023 46.1454 22.0763 45.9455C22.2503 45.7456 22.4966 45.623 22.7609 45.6045C23.4759 45.5535 39.9809 44.4885 45.2419 51.0965H53.6899C54.8659 51.0965 55.9937 51.5637 56.8252 52.3952C57.6568 53.2267 58.1239 54.3545 58.1239 55.5305C58.1239 56.7065 57.6568 57.8343 56.8252 58.6658C55.9937 59.4974 54.8659 59.9645 53.6899 59.9645L53.6869 59.9635Z" fill="#828282"/>
<path id="Vector_3" d="M45.392 72.1986C42.8737 72.1986 40.3788 71.7163 38.042 70.7776L22.455 64.5176C22.3321 64.4693 22.22 64.3973 22.1252 64.3056C22.0303 64.2138 21.9545 64.1042 21.9022 63.983C21.8499 63.8619 21.8221 63.7316 21.8204 63.5996C21.8187 63.4676 21.8431 63.3366 21.8923 63.2142C21.9414 63.0917 22.0144 62.9802 22.1068 62.886C22.1993 62.7918 22.3095 62.7169 22.4311 62.6656C22.5526 62.6142 22.6832 62.5874 22.8151 62.5867C22.9471 62.586 23.0779 62.6115 23.2 62.6616L38.787 68.9176C41.147 69.8653 43.6835 70.2934 46.2238 70.1726C48.7641 70.0518 51.2486 69.385 53.508 68.2176L77.779 56.4986C73.3656 54.6748 68.4223 54.6061 63.96 56.3066L56.46 58.8616C56.3353 58.9057 56.203 58.9246 56.071 58.9172C55.9389 58.9098 55.8096 58.8763 55.6905 58.8187C55.5715 58.761 55.4651 58.6802 55.3774 58.5811C55.2898 58.482 55.2227 58.3665 55.1801 58.2413C55.1374 58.1161 55.12 57.9836 55.1289 57.8516C55.1378 57.7196 55.1727 57.5907 55.2318 57.4724C55.2908 57.354 55.3728 57.2485 55.4729 57.162C55.573 57.0755 55.6893 57.0098 55.815 56.9686L63.284 54.4246C68.3354 52.5078 73.9361 52.642 78.89 54.7986C79.2115 54.9384 79.4866 55.167 79.683 55.4575C79.8794 55.748 79.9889 56.0884 79.9989 56.4389C80.0089 56.7894 79.9188 57.1355 79.7393 57.4367C79.5597 57.7378 79.2981 57.9817 78.985 58.1396L54.4 70.0106C51.6147 71.4476 48.5261 72.1978 45.392 72.1986Z" fill="#828282"/>
<g id="Group 1000001791">
<path id="Vector_4" d="M50.5 41.8047C46.6433 41.8047 42.8731 40.661 39.6664 38.5184C36.4596 36.3757 33.9603 33.3302 32.4844 29.767C31.0084 26.2039 30.6223 22.2831 31.3747 18.5004C32.1271 14.7178 33.9843 11.2432 36.7114 8.51611C39.4386 5.78899 42.9131 3.9318 46.6957 3.17938C50.4784 2.42697 54.3992 2.81314 57.9623 4.28905C61.5255 5.76495 64.571 8.26432 66.7137 11.4711C68.8564 14.6778 70 18.448 70 22.3047C69.9942 27.4746 67.9379 32.4311 64.2822 36.0868C60.6265 39.7425 55.6699 41.7989 50.5 41.8047ZM50.5 4.8047C47.0388 4.8047 43.6554 5.83105 40.7775 7.75398C37.8997 9.6769 35.6567 12.41 34.3321 15.6077C33.0076 18.8054 32.661 22.3241 33.3363 25.7188C34.0115 29.1134 35.6782 32.2316 38.1256 34.6791C40.5731 37.1265 43.6913 38.7932 47.0859 39.4684C50.4806 40.1437 53.9993 39.7971 57.197 38.4726C60.3947 37.1481 63.1278 34.905 65.0507 32.0272C66.9737 29.1493 68 25.7659 68 22.3047C67.9944 17.6651 66.1489 13.2171 62.8682 9.93647C59.5876 6.65578 55.1396 4.81025 50.5 4.8047Z" fill="#F28521"/>
<path id="Vector_5" d="M50.5 36.8047C47.6322 36.8047 44.8288 35.9543 42.4442 34.361C40.0597 32.7677 38.2012 30.5031 37.1038 27.8536C36.0063 25.2041 35.7191 22.2886 36.2786 19.4759C36.8381 16.6632 38.2191 14.0795 40.247 12.0516C42.2748 10.0238 44.8585 8.64279 47.6712 8.08331C50.4839 7.52382 53.3994 7.81097 56.0489 8.90844C58.6984 10.0059 60.963 11.8644 62.5563 14.2489C64.1496 16.6334 65 19.4369 65 22.3047C64.9955 26.149 63.4664 29.8345 60.7481 32.5528C58.0298 35.2711 54.3443 36.8002 50.5 36.8047ZM50.5 9.80469C48.0277 9.80469 45.611 10.5378 43.5554 11.9113C41.4998 13.2848 39.8976 15.2371 38.9515 17.5212C38.0054 19.8052 37.7579 22.3186 38.2402 24.7433C38.7225 27.1681 39.913 29.3954 41.6612 31.1435C43.4093 32.8917 45.6366 34.0822 48.0614 34.5645C50.4861 35.0468 52.9995 34.7993 55.2835 33.8532C57.5676 32.9071 59.5199 31.3049 60.8934 29.2493C62.2669 27.1937 63 24.777 63 22.3047C62.9963 18.9906 61.6782 15.8134 59.3347 13.47C56.9913 11.1266 53.8141 9.8084 50.5 9.80469Z" fill="#F28521"/>
<g id="Group 1000001792">
<path id="Vector_6" d="M50.5 23.3007C49.2166 23.3398 47.9699 22.8689 47.0329 21.9911C46.0958 21.1132 45.5446 19.8999 45.5 18.6167C45.5842 17.3479 46.1476 16.1586 47.076 15.2897C48.0044 14.4209 49.2284 13.9375 50.5 13.9375C51.7716 13.9375 52.9956 14.4209 53.924 15.2897C54.8524 16.1586 55.4158 17.3479 55.5 18.6167C55.5 18.8819 55.3946 19.1362 55.2071 19.3238C55.0196 19.5113 54.7652 19.6167 54.5 19.6167C54.2348 19.6167 53.9804 19.5113 53.7929 19.3238C53.6054 19.1362 53.5 18.8819 53.5 18.6167C53.4169 17.8792 53.065 17.1982 52.5116 16.7037C51.9583 16.2092 51.2421 15.9358 50.5 15.9358C49.7579 15.9358 49.0417 16.2092 48.4884 16.7037C47.935 17.1982 47.5831 17.8792 47.5 18.6167C47.5452 19.3692 47.8857 20.0734 48.4476 20.5761C49.0094 21.0788 49.7471 21.3392 50.5 21.3007C50.7652 21.3007 51.0196 21.406 51.2071 21.5935C51.3946 21.7811 51.5 22.0354 51.5 22.3007C51.5 22.5659 51.3946 22.8202 51.2071 23.0078C51.0196 23.1953 50.7652 23.3007 50.5 23.3007Z" fill="#828282"/>
<path id="Vector_7" d="M50.5 30.671C49.2166 30.7102 47.9699 30.2393 47.0329 29.3614C46.0958 28.4836 45.5446 27.2703 45.5 25.987C45.5 25.7218 45.6054 25.4675 45.7929 25.2799C45.9804 25.0924 46.2348 24.987 46.5 24.987C46.7652 24.987 47.0196 25.0924 47.2071 25.2799C47.3946 25.4675 47.5 25.7218 47.5 25.987C47.5831 26.7245 47.935 27.4055 48.4884 27.9C49.0417 28.3945 49.7579 28.6679 50.5 28.6679C51.2421 28.6679 51.9583 28.3945 52.5116 27.9C53.065 27.4055 53.4169 26.7245 53.5 25.987C53.4548 25.2345 53.1143 24.5303 52.5524 24.0276C51.9906 23.5249 51.2529 23.2645 50.5 23.303C50.2348 23.303 49.9804 23.1977 49.7929 23.0101C49.6054 22.8226 49.5 22.5683 49.5 22.303C49.5 22.0378 49.6054 21.7835 49.7929 21.5959C49.9804 21.4084 50.2348 21.303 50.5 21.303C51.7834 21.2639 53.0301 21.7348 53.9671 22.6126C54.9042 23.4905 55.4554 24.7038 55.5 25.987C55.4554 27.2703 54.9042 28.4836 53.9671 29.3614C53.0301 30.2393 51.7834 30.7102 50.5 30.671Z" fill="#828282"/>
<path id="Vector_8" d="M50.5 31.7489C50.2348 31.7489 49.9804 31.6435 49.7929 31.456C49.6054 31.2684 49.5 31.0141 49.5 30.7489V29.6719C49.5 29.4067 49.6054 29.1523 49.7929 28.9648C49.9804 28.7772 50.2348 28.6719 50.5 28.6719C50.7652 28.6719 51.0196 28.7772 51.2071 28.9648C51.3946 29.1523 51.5 29.4067 51.5 29.6719V30.7489C51.5 31.0141 51.3946 31.2684 51.2071 31.456C51.0196 31.6435 50.7652 31.7489 50.5 31.7489Z" fill="#828282"/>
<path id="Vector_9" d="M50.5 15.9354C50.2348 15.9354 49.9804 15.83 49.7929 15.6425C49.6054 15.4549 49.5 15.2006 49.5 14.9354V13.8594C49.5 13.5942 49.6054 13.3398 49.7929 13.1523C49.9804 12.9647 50.2348 12.8594 50.5 12.8594C50.7652 12.8594 51.0196 12.9647 51.2071 13.1523C51.3946 13.3398 51.5 13.5942 51.5 13.8594V14.9354C51.5 15.2006 51.3946 15.4549 51.2071 15.6425C51.0196 15.83 50.7652 15.9354 50.5 15.9354Z" fill="#828282"/>
</g>
</g>
</g>
</svg>
