<svg width="109" height="65" viewBox="0 0 109 65" fill="none" xmlns="http://www.w3.org/2000/svg">
<g id="Group 1000001798">
<g id="Group 1000001797">
<path id="Vector 9" d="M100.488 9.34375H8.48846C6.15513 9.67708 1.48846 14.6437 1.48846 31.8438C1.48846 49.0438 6.15513 55.0104 8.48846 55.8438H100.488C102.655 56.6771 107.088 53.6437 107.488 34.8438C107.888 16.0438 102.988 10.0104 100.488 9.34375Z" stroke="#828282"/>
<path id="Vector 10" d="M74.4885 13.3438L68.9885 17.8438C70.4885 19.1771 73.3885 24.0437 72.9885 32.8438C72.5885 41.6437 70.1551 46.8438 68.9885 48.3438L74.4885 51.8438C74.4885 51.8438 80.0885 50.1437 80.4885 35.3438C80.8885 20.5437 76.6551 14.5104 74.4885 13.3438Z" stroke="#828282"/>
<path id="Vector 11" d="M17.9884 14.3438L23.4884 17.8438C21.9884 22.3438 19.9885 22.3438 19.9885 33.8438C19.9885 39.4339 22.1551 45.8438 23.4884 47.8438L17.9884 51.3438C16.6551 50.0104 12.9885 43.3438 12.9885 32.8438C12.9885 22.0142 15.9884 16.3438 17.9884 14.3438Z" stroke="#828282"/>
<path id="Vector 14" d="M66.4885 63.3438V55.8438H72.4885C73.2885 63.8438 68.8218 64.1771 66.4885 63.3438Z" stroke="#828282"/>
<path id="Vector 15" d="M65.9885 1.65625V9.15625H71.9885C72.7885 1.15625 68.3218 0.822917 65.9885 1.65625Z" stroke="#828282"/>
<path id="Vector 16" d="M102.988 24.3438C103.388 18.3438 100.822 13.5104 99.4884 11.8438C95.9884 11.8438 97.4884 14.3438 98.4884 19.8438C99.2884 24.2437 101.822 24.6771 102.988 24.3438Z" stroke="#828282"/>
<path id="Vector 17" d="M102.988 40.9297C103.388 46.9297 100.822 51.763 99.4884 53.4297C95.9884 53.4297 97.4884 50.9297 98.4884 45.4297C99.2884 41.0297 101.822 40.5964 102.988 40.9297Z" stroke="#828282"/>
<path id="Vector 18" d="M7.70166 12.3438C8.7568 12.3438 9.74545 13.131 8.15386 17.7084C6.79726 21.6099 6.79726 21.6099 4.98846 21.1222" stroke="#828282"/>
<path id="Vector 19" d="M7.70166 52.3438C8.7568 52.3438 9.74545 51.5565 8.15386 46.9791C6.79726 43.0776 6.79726 43.0776 4.98846 43.5653" stroke="#828282"/>
</g>
<path id="Vector 21" d="M56.4647 19.3438H63.9885C65.093 19.3438 65.9885 20.2392 65.9885 21.3437V42.3438C65.9885 43.4483 65.093 44.3438 63.9885 44.3438H56.9885" stroke="#F28521"/>
<path id="Vector 22" d="M35.5123 44.3438H27.9885C26.8839 44.3438 25.9885 43.4483 25.9885 42.3438V21.3437C25.9885 20.2392 26.8839 19.3438 27.9885 19.3438H35.9885" stroke="#F28521"/>
<g id="Group 1000001796">
<circle id="Ellipse 87" cx="46.6133" cy="32.2186" r="16.1248" stroke="#828282" stroke-width="1.5"/>
<g id="Vector">
<path d="M42.3643 26.247C42.4901 26.2992 42.6043 26.3756 42.7002 26.472C42.797 26.5676 42.8738 26.6812 42.9262 26.8065C42.9787 26.9318 43.0057 27.0661 43.0057 27.2018C43.0057 27.3375 42.9787 27.4719 42.9262 27.5972C42.8738 27.7224 42.797 27.8361 42.7002 27.9317L37.3004 33.2977L42.628 37.7179C42.7325 37.8042 42.8189 37.9102 42.8823 38.0298C42.9456 38.1494 42.9846 38.2803 42.9971 38.4149C43.0096 38.5496 42.9953 38.6853 42.9549 38.8145C42.9146 38.9436 42.8491 39.0635 42.7622 39.1674C42.6651 39.2834 42.5436 39.3767 42.4062 39.4407C42.2687 39.5047 42.1189 39.5377 41.9672 39.5374C41.726 39.5379 41.4922 39.4543 41.3064 39.301L35.1116 34.1612C35.0015 34.0702 34.9117 33.9574 34.8477 33.83C34.7837 33.7026 34.747 33.5633 34.7399 33.421C34.7321 33.2772 34.7547 33.1333 34.8062 32.9987C34.8578 32.8641 34.9372 32.7419 35.0393 32.6398L41.2341 26.472C41.3301 26.3756 41.4443 26.2992 41.5701 26.247C41.6959 26.1948 41.8309 26.1679 41.9672 26.1679C42.1035 26.1679 42.2384 26.1948 42.3643 26.247Z" fill="#F28521"/>
<path d="M51.2594 26.1697C51.5343 26.1697 51.798 26.2784 51.9924 26.472L58.1872 32.6398C58.2893 32.7419 58.3688 32.8641 58.4203 32.9987C58.4719 33.1333 58.4945 33.2772 58.4867 33.421C58.4796 33.5633 58.4429 33.7026 58.3789 33.83C58.3149 33.9574 58.2251 34.0702 58.115 34.1612L51.9202 39.301C51.7344 39.4543 51.5006 39.5379 51.2594 39.5374C51.1077 39.5377 50.9578 39.5047 50.8204 39.4407C50.683 39.3767 50.5615 39.2834 50.4644 39.1674C50.3775 39.0635 50.312 38.9436 50.2716 38.8145C50.2313 38.6853 50.217 38.5496 50.2295 38.4149C50.2419 38.2803 50.281 38.1494 50.3443 38.0298C50.4076 37.9102 50.4941 37.8042 50.5986 37.7179L55.9261 33.2977L50.5263 27.9317C50.3319 27.7381 50.2227 27.4756 50.2227 27.2018C50.2227 26.9281 50.3319 26.6656 50.5263 26.472C50.7208 26.2784 50.9844 26.1697 51.2594 26.1697Z" fill="#F28521"/>
<path d="M47.9556 24.1113C48.0923 24.0858 48.2327 24.0881 48.3685 24.1179C48.5054 24.1424 48.6359 24.1941 48.7522 24.27C48.8685 24.3459 48.9682 24.4444 49.0454 24.5596C49.1225 24.6748 49.1755 24.8043 49.2011 24.9404C49.2267 25.0765 49.2245 25.2163 49.1945 25.3515L46.0971 40.771C46.0488 41.0067 45.919 41.2181 45.7304 41.3683C45.5417 41.5186 45.3061 41.5982 45.0646 41.5934H44.8581C44.7212 41.5689 44.5907 41.5172 44.4744 41.4413C44.3581 41.3655 44.2584 41.267 44.1812 41.1518C44.1041 41.0366 44.0511 40.907 44.0255 40.7709C43.9999 40.6349 44.0021 40.495 44.0321 40.3598L47.1295 24.9403C47.1541 24.804 47.206 24.6741 47.2822 24.5583C47.3584 24.4425 47.4574 24.3432 47.5731 24.2664C47.6888 24.1896 47.8189 24.1369 47.9556 24.1113Z" fill="#F28521"/>
</g>
<path id="Vector 20" d="M62.9578 50.874C63.2507 51.1669 63.7256 51.1669 64.0185 50.874C64.3114 50.5811 64.3114 50.1063 64.0185 49.8134L62.9578 50.874ZM56.7079 44.6241L62.9578 50.874L64.0185 49.8134L57.7686 43.5634L56.7079 44.6241Z" fill="#828282"/>
</g>
</g>
</svg>
