<svg width="155" height="32" viewBox="0 0 155 32" fill="none" xmlns="http://www.w3.org/2000/svg">
<path opacity="0.8" d="M8.50793 27.3792L8.50793 31.6628L7.9521 31.6628L7.9521 27.3792L8.50793 27.3792ZM9.8864 27.3792L9.8864 27.8461L6.57362 27.8461L6.57362 27.3792L9.8864 27.3792ZM19.3949 29.3876L19.3949 29.6544C19.3949 29.9731 19.3578 30.2621 19.2763 30.5215C19.1948 30.7735 19.0836 30.9958 18.928 31.1737C18.7798 31.3516 18.5945 31.485 18.387 31.5813C18.1795 31.6777 17.9423 31.7221 17.6829 31.7221C17.4236 31.7221 17.1938 31.6777 16.9863 31.5813C16.7788 31.485 16.5935 31.3516 16.4379 31.1737C16.2822 30.9958 16.1637 30.7809 16.0821 30.5215C16.0006 30.2695 15.9561 29.9805 15.9561 29.6544L15.9561 29.3876C15.9561 29.0689 16.0006 28.7799 16.0821 28.5279C16.1637 28.2759 16.2822 28.0536 16.4379 27.8757C16.5935 27.6979 16.7714 27.5571 16.9789 27.4607C17.1938 27.3644 17.4235 27.3199 17.6755 27.3199C17.9275 27.3199 18.1721 27.3644 18.3796 27.4607C18.5945 27.5571 18.7724 27.6905 18.9206 27.8757C19.0762 28.0536 19.1874 28.2685 19.2689 28.5279C19.3504 28.7799 19.3949 29.0689 19.3949 29.3876ZM18.8317 29.6544L18.8317 29.3802C18.8317 29.1282 18.802 28.8985 18.7501 28.7058C18.6982 28.5131 18.6241 28.3426 18.5204 28.2092C18.424 28.0758 18.298 27.9721 18.1498 27.9054C18.009 27.8387 17.846 27.8016 17.6607 27.8016C17.4754 27.8016 17.3272 27.8387 17.179 27.9054C17.0381 27.9721 16.9122 28.0758 16.8158 28.2092C16.7195 28.3426 16.638 28.5057 16.5861 28.7058C16.5342 28.8985 16.5045 29.1282 16.5045 29.3802L16.5045 29.6544C16.5045 29.9138 16.5342 30.1361 16.5861 30.3362C16.638 30.5289 16.7195 30.6994 16.8232 30.8328C16.927 30.9662 17.053 31.0699 17.1938 31.1366C17.3346 31.2033 17.4976 31.2404 17.6755 31.2404C17.8534 31.2404 18.0238 31.2033 18.1647 31.1366C18.3055 31.0699 18.4315 30.9662 18.5278 30.8328C18.6241 30.6994 18.7057 30.5289 18.7575 30.3362C18.8094 30.1361 18.8317 29.9138 18.8317 29.6544ZM29.0664 29.5284L29.0664 31.0996C29.0146 31.1811 28.9256 31.2626 28.8145 31.3664C28.6959 31.4627 28.5403 31.5443 28.3327 31.6184C28.1327 31.6925 27.8659 31.7221 27.5472 31.7221C27.2878 31.7221 27.0432 31.6776 26.8283 31.5887C26.6134 31.4998 26.4207 31.359 26.2576 31.1885C26.102 31.0107 25.976 30.7957 25.8871 30.5437C25.7981 30.2918 25.7611 30.0027 25.7611 29.6841L25.7611 29.3506C25.7611 29.0319 25.7981 28.7428 25.8722 28.4983C25.9464 28.2463 26.0649 28.0314 26.2058 27.8609C26.354 27.683 26.5318 27.5497 26.7468 27.4607C26.9617 27.3718 27.2062 27.3199 27.4805 27.3199C27.8065 27.3199 28.0808 27.3792 28.3031 27.4904C28.5254 27.6015 28.6959 27.7572 28.8219 27.9573C28.9479 28.1574 29.0294 28.3797 29.0664 28.6317L28.4958 28.6317C28.4736 28.476 28.4217 28.3352 28.3401 28.2092C28.266 28.0832 28.1623 27.9795 28.0215 27.9054C27.8807 27.8239 27.7028 27.7868 27.4805 27.7868C27.2803 27.7868 27.1099 27.8239 26.9617 27.898C26.8135 27.9721 26.6949 28.0758 26.6059 28.2092C26.5096 28.3426 26.4429 28.5057 26.391 28.6984C26.3466 28.8911 26.3243 29.106 26.3243 29.3506L26.3243 29.6915C26.3243 29.936 26.354 30.1584 26.4058 30.3511C26.4651 30.5438 26.5467 30.7068 26.6578 30.8476C26.769 30.981 26.895 31.0848 27.0432 31.1589C27.1914 31.233 27.3619 31.2626 27.5472 31.2626C27.7473 31.2626 27.9103 31.2478 28.0363 31.2108C28.1623 31.1737 28.2586 31.1366 28.3327 31.0848C28.4069 31.0329 28.4587 30.9884 28.4958 30.9439L28.4958 29.9805L27.5027 29.9805L27.5027 29.521L29.059 29.521L29.0664 29.5284ZM38.3897 31.1959L38.3897 31.6554L36.1218 31.6554L36.1218 31.1959L38.3897 31.1959ZM36.2404 27.3718L36.2404 31.6554L35.6698 31.6554L35.6698 27.3718L36.2404 27.3718ZM38.0932 29.2097L38.0932 29.6692L36.1293 29.6692L36.1293 29.2097L38.0932 29.2097ZM38.36 27.3718L38.36 27.8387L36.1218 27.8387L36.1218 27.3718L38.36 27.3718ZM46.3937 27.3718L46.3937 31.6554L45.8379 31.6554L45.8379 27.3718L46.3937 27.3718ZM47.7722 27.3718L47.7722 27.8387L44.4594 27.8387L44.4594 27.3718L47.7722 27.3718ZM56.8657 29.2097L56.8657 29.6692L54.546 29.6692L54.546 29.2097L56.8657 29.2097ZM54.6349 27.3718L54.6349 31.6554L54.0642 31.6554L54.0642 27.3718L54.6349 27.3718ZM57.3622 27.3718L57.3622 31.6554L56.799 31.6554L56.799 27.3718L57.3622 27.3718ZM66.7521 31.1959L66.7521 31.6554L64.4843 31.6554L64.4843 31.1959L66.7521 31.1959ZM64.6029 27.3718L64.6029 31.6554L64.0322 31.6554L64.0322 27.3718L64.6029 27.3718ZM66.4557 29.2097L66.4557 29.6692L64.4917 29.6692L64.4917 29.2097L66.4557 29.2097ZM66.7225 27.3718L66.7225 27.8387L64.4843 27.8387L64.4843 27.3718L66.7225 27.3718ZM73.1109 27.3718L74.5264 27.3718C74.8451 27.3718 75.1193 27.4237 75.3416 27.52C75.564 27.6164 75.7344 27.7646 75.853 27.9573C75.9716 28.15 76.0309 28.3797 76.0309 28.6613C76.0309 28.854 75.9938 29.0393 75.9123 29.2023C75.8307 29.3654 75.7196 29.4988 75.5714 29.6174C75.4231 29.7285 75.2453 29.8101 75.0452 29.8693L74.8895 29.9286L73.5555 29.9286L73.5555 29.4691L74.556 29.4691C74.7561 29.4691 74.9266 29.4321 75.0674 29.3654C75.2008 29.2913 75.3046 29.1949 75.3713 29.0764C75.438 28.9504 75.475 28.8244 75.475 28.6761C75.475 28.5131 75.4454 28.3649 75.3787 28.2463C75.312 28.1203 75.2156 28.0314 75.0748 27.9647C74.934 27.898 74.7635 27.8609 74.5412 27.8609L73.6889 27.8609L73.6889 31.6776L73.1183 31.6776L73.1183 27.394L73.1109 27.3718ZM75.6158 31.6554L74.5783 29.7137L75.1712 29.7137L76.2236 31.6184L76.2236 31.6554L75.6158 31.6554ZM90.7642 30.3585L91.6165 27.3718L92.0315 27.3718L91.7944 28.5353L90.8828 31.6554L90.4752 31.6554L90.7716 30.3585L90.7642 30.3585ZM89.8823 27.3718L90.5567 30.2992L90.7568 31.648L90.3492 31.648L89.3116 27.3644L89.8749 27.3644L89.8823 27.3718ZM93.1209 30.2992L93.7806 27.3718L94.3512 27.3718L93.3136 31.6554L92.906 31.6554L93.1209 30.2992ZM92.0834 27.3718L92.9134 30.3585L93.2099 31.6554L92.8023 31.6554L91.9203 28.5353L91.6758 27.3718L92.0834 27.3718ZM103.363 31.1959L103.363 31.6554L101.095 31.6554L101.095 31.1959L103.363 31.1959ZM101.214 27.3718L101.214 31.6554L100.643 31.6554L100.643 27.3718L101.214 27.3718ZM103.067 29.2097L103.067 29.6692L101.103 29.6692L101.103 29.2097L103.067 29.2097ZM103.334 27.3718L103.334 27.8387L101.095 27.8387L101.095 27.3718L103.334 27.3718ZM120.038 29.521L120.038 31.0922C119.986 31.1737 119.897 31.2552 119.786 31.359C119.668 31.4553 119.512 31.5368 119.305 31.611C119.104 31.6851 118.838 31.7147 118.519 31.7147C118.26 31.7147 118.015 31.6703 117.8 31.5813C117.585 31.4924 117.392 31.3516 117.229 31.1811C117.066 31.0032 116.948 30.7883 116.859 30.5363C116.77 30.2844 116.733 29.9953 116.733 29.6767L116.733 29.3431C116.733 29.0245 116.77 28.7354 116.844 28.4909C116.918 28.2389 117.037 28.024 117.178 27.8535C117.326 27.6757 117.504 27.5422 117.719 27.4533C117.933 27.3644 118.178 27.3125 118.452 27.3125C118.778 27.3125 119.053 27.3718 119.275 27.483C119.497 27.5941 119.668 27.7497 119.794 27.9498C119.92 28.1499 120.001 28.3723 120.038 28.6243L119.468 28.6243C119.445 28.4686 119.393 28.3278 119.312 28.2018C119.238 28.0759 119.134 27.9721 118.993 27.898C118.852 27.8165 118.675 27.7794 118.452 27.7794C118.252 27.7794 118.082 27.8165 117.933 27.8906C117.785 27.9647 117.667 28.0684 117.578 28.2018C117.481 28.3352 117.415 28.4983 117.363 28.691C117.318 28.8836 117.296 29.0986 117.296 29.3431L117.296 29.6841C117.296 29.9286 117.326 30.151 117.378 30.3437C117.437 30.5363 117.518 30.6994 117.63 30.8402C117.741 30.9736 117.867 31.0774 118.015 31.1515C118.163 31.2256 118.334 31.2552 118.519 31.2552C118.719 31.2552 118.882 31.2404 119.008 31.2033C119.134 31.1663 119.23 31.1292 119.305 31.0773C119.379 31.0255 119.431 30.981 119.468 30.9365L119.468 29.9731L118.474 29.9731L118.474 29.5136L120.031 29.5136L120.038 29.521ZM126.634 27.3718L128.05 27.3718C128.368 27.3718 128.643 27.4237 128.865 27.52C129.087 27.6164 129.258 27.7646 129.376 27.9573C129.495 28.15 129.554 28.3797 129.554 28.6613C129.554 28.854 129.517 29.0393 129.436 29.2023C129.354 29.3654 129.243 29.4988 129.095 29.6174C128.946 29.7285 128.769 29.8101 128.568 29.8694L128.413 29.9286L127.079 29.9286L127.079 29.4691L128.079 29.4691C128.279 29.4691 128.45 29.4321 128.591 29.3654C128.724 29.2913 128.828 29.1949 128.895 29.0764C128.961 28.9504 128.998 28.8244 128.998 28.6761C128.998 28.5131 128.969 28.3649 128.902 28.2463C128.835 28.1203 128.739 28.0314 128.598 27.9647C128.457 27.898 128.279 27.8609 128.064 27.8609L127.212 27.8609L127.212 31.6776L126.642 31.6776L126.642 27.394L126.634 27.3718ZM129.139 31.6554L128.102 29.7137L128.694 29.7137L129.747 31.6184L129.747 31.6554L129.139 31.6554ZM139.3 29.3802L139.3 29.647C139.3 29.9657 139.263 30.2547 139.181 30.5141C139.1 30.7661 138.989 30.9884 138.833 31.1663C138.685 31.3442 138.499 31.4776 138.292 31.5739C138.084 31.6703 137.847 31.7147 137.588 31.7147C137.328 31.7147 137.099 31.6703 136.891 31.5739C136.684 31.4776 136.498 31.3442 136.343 31.1663C136.187 30.9884 136.069 30.7735 135.987 30.5141C135.905 30.2621 135.861 29.9731 135.861 29.647L135.861 29.3802C135.861 29.0615 135.905 28.7725 135.987 28.5205C136.069 28.2685 136.187 28.0462 136.343 27.8683C136.498 27.6905 136.676 27.5497 136.884 27.4533C137.099 27.357 137.328 27.3125 137.58 27.3125C137.832 27.3125 138.077 27.357 138.284 27.4533C138.499 27.5497 138.677 27.6831 138.825 27.8683C138.981 28.0462 139.092 28.2611 139.174 28.5205C139.255 28.7725 139.3 29.0615 139.3 29.3802ZM138.737 29.647L138.737 29.3728C138.737 29.1208 138.707 28.8911 138.655 28.6984C138.603 28.5057 138.529 28.3352 138.425 28.2018C138.329 28.0684 138.203 27.9647 138.055 27.898C137.914 27.8313 137.751 27.7942 137.566 27.7942C137.38 27.7942 137.232 27.8313 137.084 27.898C136.943 27.9647 136.817 28.0684 136.721 28.2018C136.624 28.3352 136.543 28.4983 136.491 28.6984C136.439 28.8911 136.409 29.1208 136.409 29.3728L136.409 29.647C136.409 29.9064 136.439 30.1287 136.491 30.3288C136.543 30.5215 136.624 30.692 136.728 30.8254C136.832 30.9588 136.958 31.0625 137.099 31.1292C137.239 31.1959 137.403 31.233 137.58 31.233C137.758 31.233 137.929 31.1959 138.07 31.1292C138.21 31.0625 138.336 30.9588 138.433 30.8254C138.529 30.692 138.611 30.5215 138.662 30.3288C138.714 30.1287 138.737 29.9064 138.737 29.647ZM146.933 30.3585L147.786 27.3718L148.201 27.3718L147.963 28.5353L147.052 31.6554L146.644 31.6554L146.941 30.3585L146.933 30.3585ZM146.051 27.3718L146.726 30.2992L146.926 31.648L146.518 31.648L145.481 27.3644L146.044 27.3644L146.051 27.3718ZM149.29 30.2992L149.95 27.3718L150.52 27.3718L149.483 31.6554L149.075 31.6554L149.29 30.2992ZM148.252 27.3718L149.082 30.3585L149.379 31.6554L148.971 31.6554L148.089 28.5353L147.845 27.3718L148.252 27.3718Z" fill="black"/>
<path d="M121.928 0.277342L121.928 20.6506L119.149 20.6506L119.149 0.277342L121.928 0.277342ZM127.879 0.277343L127.879 20.6506L125.1 20.6506L125.1 0.277342L127.879 0.277343ZM130.154 15.6851C130.154 12.313 132.378 10.6233 136.824 10.6233C138.255 10.6233 139.685 10.7271 141.115 10.9346L141.115 9.38564C141.115 7.4958 139.641 6.55458 136.684 6.55458C134.994 6.55458 133.26 6.81397 131.481 7.34016L131.481 4.99084C133.252 4.47206 134.986 4.20526 136.684 4.20526C141.568 4.20526 144.013 5.90981 144.013 9.31153L144.013 20.6506L142.383 20.6506L141.382 19.0201C139.744 20.1096 137.958 20.6506 136.024 20.6506C132.111 20.6506 130.147 18.9979 130.147 15.6851L130.154 15.6851ZM136.824 12.9726C134.312 12.9726 133.052 13.862 133.052 15.6332C133.052 17.4045 134.045 18.2938 136.024 18.2938C138.003 18.2938 139.73 17.7602 141.115 16.693L141.115 13.2765C139.685 13.069 138.255 12.9652 136.824 12.9652L136.824 12.9726ZM146.822 20.6506L146.822 4.20526L148.779 4.20526L149.297 6.30261C150.743 4.9019 152.469 4.20526 154.5 4.20526L154.5 6.61388C152.536 6.61388 150.943 7.31053 149.727 8.69641L149.727 20.6432L146.829 20.6432L146.822 20.6506Z" fill="#F28521"/>
<path d="M100.829 19.5291C99.2796 20.3517 97.5454 20.7667 95.789 20.7149C94.0325 20.6704 92.3205 20.1738 90.8161 19.2697C89.3116 18.3655 88.0665 17.0908 87.1994 15.5641C86.3323 14.0374 85.8728 12.3106 85.8728 10.5616C85.8728 8.80514 86.3175 7.07834 87.1772 5.55164C88.0369 4.02495 89.2745 2.74283 90.779 1.83126C92.2835 0.919689 93.988 0.415723 95.7445 0.363845C97.5009 0.311967 99.2351 0.712182 100.791 1.53482L99.4871 4.01756C98.3606 3.42466 97.1007 3.13562 95.8334 3.17267C94.5587 3.20973 93.321 3.57287 92.2316 4.23246C91.1422 4.89205 90.2454 5.81846 89.6229 6.93013C89.0003 8.0418 88.6742 9.28687 88.6742 10.5616C88.6742 11.8363 89.0078 13.0814 89.6377 14.1856C90.2677 15.2899 91.1718 16.2163 92.2612 16.8685C93.3507 17.5207 94.5958 17.8838 95.8631 17.9134C97.1378 17.9431 98.3903 17.6466 99.5168 17.0538L100.836 19.5291L100.829 19.5291Z" fill="#F28521"/>
<path d="M108.929 7.33765C110.915 7.33765 112.627 8.5753 113.391 10.3392L116.125 9.06444C114.895 6.19633 112.131 4.19531 108.922 4.19531C107.684 4.19531 106.52 4.49177 105.475 5.01796L106.787 7.8416C107.432 7.51551 108.151 7.33765 108.922 7.33765L108.929 7.33765Z" fill="#273777"/>
<path d="M116.132 9.0621L113.398 10.3368C113.672 10.9742 113.828 11.6782 113.828 12.4193C113.828 14.4352 112.701 16.1768 111.063 16.9994L109.774 14.2277C109.522 14.3537 109.233 14.4278 108.929 14.4278C108.143 14.4278 107.469 13.9386 107.165 13.242L104.467 14.5019C104.193 13.8645 104.037 13.1605 104.037 12.4193C104.037 10.4035 105.164 8.6619 106.802 7.83927L105.49 5.01562C102.859 6.34963 101.051 9.15845 101.051 12.4193C101.051 13.6125 101.295 14.7464 101.74 15.7692C102.97 18.6373 105.735 20.6383 108.944 20.6383C110.181 20.6383 111.345 20.3419 112.39 19.8157C115.021 18.4817 116.829 15.6728 116.829 12.4119C116.829 11.2187 116.585 10.0848 116.14 9.0621L116.132 9.0621Z" fill="#F28521"/>
<path d="M113.398 10.3296C112.635 8.55837 110.923 7.32812 108.937 7.32812C108.173 7.32812 107.447 7.5134 106.802 7.83208C105.164 8.65471 104.038 10.3963 104.038 12.4122C104.038 13.1533 104.193 13.8573 104.468 14.4947L107.165 13.2348C107.054 12.9828 106.995 12.7086 106.995 12.4122C106.995 11.6192 107.439 10.9299 108.084 10.6038C108.336 10.4778 108.625 10.4037 108.929 10.4037C109.715 10.4037 110.389 10.8929 110.693 11.5895C110.804 11.8415 110.863 12.1157 110.863 12.4122C110.863 13.2051 110.419 13.8944 109.774 14.2205L111.064 16.9922C112.701 16.1696 113.828 14.428 113.828 12.4122C113.828 11.671 113.672 10.967 113.398 10.3296Z" fill="white"/>
<path d="M110.693 11.592C110.389 10.8954 109.715 10.4062 108.929 10.4062C108.625 10.4062 108.343 10.4804 108.084 10.6063C107.439 10.9324 106.995 11.6143 106.995 12.4147C106.995 12.7111 107.054 12.9853 107.165 13.2373C107.469 13.934 108.143 14.4231 108.929 14.4231C109.233 14.4231 109.514 14.349 109.774 14.223C110.419 13.8969 110.863 13.2151 110.863 12.4147C110.863 12.1182 110.804 11.844 110.693 11.592Z" fill="#273777"/>
<path d="M80.2256 5.81337C79.2844 4.77581 77.8614 4.24219 75.9938 4.24219C74.2596 4.24219 72.5773 4.93143 70.9987 6.28767C70.2057 4.93143 68.8198 4.24219 66.8707 4.24219C64.9216 4.24219 63.3578 4.9166 61.9794 6.23579L61.9349 4.24219L58.0292 4.24219L58.0292 20.4504L62.424 20.4504L62.424 9.34847C63.3949 8.3702 64.425 7.88106 65.4996 7.88106C66.1741 7.88106 66.6558 8.07376 66.9819 8.47397C67.3154 8.88158 67.4858 9.51152 67.4858 10.349L67.4858 20.4504L71.8806 20.4504L71.8806 9.35589C72.9034 8.37762 73.9854 7.88106 75.0822 7.88106C75.8085 7.88106 76.357 8.08118 76.7053 8.47397C77.061 8.87417 77.2463 9.48928 77.2463 10.3119L77.2463 20.4578L81.6411 20.4578L81.6411 10.4601C81.6411 8.41467 81.1668 6.85832 80.2256 5.82076L80.2256 5.81337Z" fill="#273777"/>
<path d="M53.3749 5.5836C52.1743 4.69427 50.3586 4.24219 47.9871 4.24219C46.2603 4.24219 44.3111 4.49418 42.2064 4.99814L42.0433 5.03518L42.0433 8.62217L42.2953 8.5629C44.3704 8.06635 46.2825 7.81436 47.9796 7.81436C48.9505 7.81436 49.6768 7.97741 50.1437 8.3035C50.5958 8.62218 50.8181 9.08167 50.8181 9.71903L50.8181 10.6602C49.8176 10.4898 48.8097 10.4008 47.8166 10.4008C45.5043 10.4008 43.7331 10.8085 42.5695 11.6163C41.3763 12.4389 40.7686 13.684 40.7686 15.3219C40.7686 16.9597 41.28 18.3085 42.2879 19.1682C43.2884 20.0131 44.7928 20.4504 46.7568 20.4504C48.328 20.4504 49.7954 20.0279 51.122 19.1905L51.2702 20.4504L55.2203 20.4504L55.2203 9.65233C55.2203 7.85884 54.5978 6.48776 53.3824 5.5836L53.3749 5.5836ZM50.8181 16.0407C49.7509 16.7893 48.5874 17.1746 47.3497 17.1746C46.6086 17.1746 46.0453 17.0116 45.6822 16.7003C45.3265 16.389 45.156 15.9222 45.156 15.2774C45.156 14.6919 45.3635 14.2695 45.7785 13.9804C46.2158 13.6766 46.905 13.5283 47.8092 13.5283C48.869 13.5283 49.8769 13.6173 50.8107 13.7952L50.8107 16.0482L50.8181 16.0407Z" fill="#273777"/>
<path d="M31.4823 4.24219C28.9699 4.24219 27.0504 4.9166 25.7831 6.23579C24.5158 7.55497 23.8784 9.54857 23.8784 12.1647C23.8784 14.7808 24.6195 16.9894 26.0869 18.3752C27.5469 19.7537 29.7554 20.4504 32.6532 20.4504C34.6468 20.4504 36.3736 20.2947 37.7669 19.9983L37.9299 19.9612L37.9299 16.3891L37.6854 16.4335C36.1142 16.73 34.5208 16.8782 32.9496 16.8782C31.3785 16.8782 30.1705 16.6114 29.3997 16.0778C28.6883 15.5961 28.3177 14.8994 28.2732 13.9508L38.7007 13.9508L38.7229 13.7729C38.8119 13.1133 38.8563 12.4463 38.8563 11.7867C38.8563 9.2966 38.2338 7.39192 37.0035 6.13944C35.7733 4.87954 33.9131 4.24219 31.4748 4.24219L31.4823 4.24219ZM34.5727 10.7714L28.2881 10.7714C28.3992 9.80795 28.7031 9.06684 29.1996 8.57771C29.7258 8.05152 30.4966 7.78471 31.4823 7.78471C32.5198 7.78471 33.3054 8.03671 33.8093 8.54066C34.2985 9.0298 34.5579 9.77832 34.5727 10.764L34.5727 10.7714Z" fill="#273777"/>
<path d="M13.2658 19.9508L10.4422 16.06L9.74553 16.06C8.76726 16.06 7.84827 15.7858 7.05528 15.3114C5.43965 14.3406 4.35764 12.5323 4.35764 10.4572C4.35764 7.98183 5.90656 5.87705 8.05579 5.14335C8.35965 5.0396 8.68575 4.95807 9.01925 4.91361L9.55286 3.89087L10.6719 1.74164L11.3612 0.429876L11.4353 0.289062L9.56025 0.289062C4.26128 0.400229 -0.000117504 4.9062 -0.000117746 10.4497C-0.000117988 15.9933 4.26128 20.5066 9.56025 20.6104L13.7698 20.6104L13.2732 19.9286L13.2658 19.9508Z" fill="#F28521"/>
<path d="M21.8774 9.59677C21.9515 9.14469 21.996 8.67778 21.996 8.20347L21.996 8.19607C21.996 7.13628 21.7959 6.12836 21.4253 5.20197C20.8695 3.80126 19.9505 2.60807 18.7795 1.74837C18.1199 1.26665 17.3862 0.888687 16.6007 0.64412C16.1338 0.495897 15.652 0.399534 15.1481 0.347656L14.5107 1.56309L14.3403 1.8966L12.7765 4.89069L14.444 4.89069C15.3037 4.8981 16.0819 5.25384 16.6525 5.8245C16.8675 6.03942 17.0453 6.27658 17.1936 6.54338C17.4678 7.03252 17.6234 7.59577 17.6234 8.19607C17.6234 8.55181 17.5641 8.90011 17.4604 9.21879C17.112 10.3082 16.2375 11.1457 15.1481 11.4125C14.9109 11.4718 14.6664 11.5014 14.407 11.5014L10.8496 11.5014L12.9544 14.3992L13.7326 15.4738L14.1698 16.0741L14.1846 16.0889L15.615 18.0529L17.49 20.6394L21.8552 20.6394L18.535 16.0667L18.0977 15.4664L17.905 15.1996C17.9569 15.1699 18.0088 15.1403 18.0607 15.1107C20.0246 13.9842 21.455 11.9683 21.8626 9.58935L21.8774 9.59677Z" fill="#273777"/>
</svg>
