<svg width="612" height="503" viewBox="0 0 612 503" fill="none" xmlns="http://www.w3.org/2000/svg">
<rect width="612" height="451.924" fill="#EDEDED"/>
<g style="mix-blend-mode:multiply">
<mask id="mask0_719_5406" style="mask-type:alpha" maskUnits="userSpaceOnUse" x="41" y="-52" width="528" height="407">
<path d="M102.504 -16.9519L42.1875 37.4584L71.6881 69.841V288.612L137.078 353.942H511.191L567.938 200.124L564.179 135.736L454.445 -43.1215L294.352 -50.6523L102.504 -16.9519Z" fill="#0053AD" stroke="black"/>
</mask>
<g mask="url(#mask0_719_5406)">
</g>
<g clip-path="url(#clip0_719_5406)">
<path d="M570 -24.4258H42V502.574H570V-24.4258Z" fill="white"/>
<path d="M179.677 128.247C179.672 128.287 179.664 128.329 179.659 128.368H82C82 119.22 89.4237 111.8 98.5898 111.8C101.283 111.8 103.825 112.44 106.077 113.581C108.511 105.871 116.428 100.601 125.264 102.329C133.015 103.847 138.501 110.798 138.501 118.682V118.761C138.771 118.803 139.219 119.159 139.299 118.903C142.197 109.668 154.03 108.501 162.182 109.296C172.037 110.258 181.246 117.504 179.677 128.247Z" fill="white" stroke="#D1D3D4" stroke-width="3.75" stroke-miterlimit="10"/>
<path d="M504.686 415.917C497.07 415.917 490.892 420.752 490.892 426.726C490.892 429.242 491.993 431.561 493.841 433.4H455.081C450.205 419.619 447.552 404.797 447.552 389.348C447.552 373.899 450.205 359.072 455.089 345.291H493.865C492.004 343.454 490.895 341.128 490.895 338.598C490.895 332.622 497.073 327.781 504.689 327.781C512.305 327.781 518.488 332.624 518.488 338.598C518.488 341.128 517.38 343.452 515.518 345.291H535.825V378.342C534.017 376.603 531.76 375.575 529.318 375.575C523.338 375.575 518.488 381.741 518.488 389.343C518.488 396.945 523.338 403.119 529.318 403.119C531.76 403.119 534.017 402.091 535.825 400.352V433.4H515.537C517.385 431.563 518.488 429.245 518.488 426.726C518.488 420.752 512.311 415.917 504.689 415.917H504.686Z" fill="#EA9B26"/>
<path d="M144.915 199.939C144.915 107.988 219.598 33.4492 311.721 33.4492C403.844 33.4492 478.527 107.991 478.527 199.939H144.915Z" fill="white"/>
<path opacity="0.1" d="M144.915 199.939C144.915 107.988 219.598 33.4492 311.721 33.4492C403.844 33.4492 478.527 107.991 478.527 199.939H144.915Z" fill="#EA9B26"/>
<path d="M291.343 434.058C283.024 434.058 276.234 427.413 276.02 419.16L250.924 406.051H372.523L347.424 419.16C347.21 427.41 340.418 434.058 332.102 434.058H291.343Z" fill="#102048"/>
<path d="M369.835 406.712L346.767 418.759C346.767 426.846 340.199 433.399 332.099 433.399H291.34C283.238 433.399 276.672 426.843 276.672 418.759L253.604 406.712H369.833M375.202 405.395H248.234L252.991 407.879L275.371 419.568C275.793 427.992 282.794 434.717 291.337 434.717H332.096C340.639 434.717 347.641 427.992 348.063 419.568L370.442 407.879L375.2 405.395H375.202Z" fill="white"/>
<path d="M311.51 332.098C384.637 332.098 443.919 272.929 443.919 199.94C443.919 126.951 384.637 67.7812 311.51 67.7812C238.382 67.7812 179.1 126.951 179.1 199.94C179.1 272.929 238.382 332.098 311.51 332.098Z" fill="white"/>
<path d="M311.51 332.098C384.637 332.098 443.919 272.929 443.919 199.94C443.919 126.951 384.637 67.7812 311.51 67.7812C238.382 67.7812 179.1 126.951 179.1 199.94C179.1 272.929 238.382 332.098 311.51 332.098Z" fill="white"/>
<path d="M369.835 291.953H253.607V355.138H369.835V291.953Z" fill="#EA9B26"/>
<path d="M369.835 355.137H253.607V389.479H369.835V355.137Z" fill="#2B455D"/>
<path d="M397.964 138.16C390.34 138.16 384.162 143 384.162 148.977C384.162 151.506 385.271 153.833 387.132 155.67H355.856V125.715C354.027 127.512 351.738 128.587 349.243 128.587C343.258 128.587 338.414 122.421 338.414 114.814C338.414 107.207 343.258 101.046 349.243 101.046C351.738 101.046 354.027 102.118 355.856 103.918V75.0859C393.476 88.3584 423.295 118.121 436.593 155.67H408.788C410.65 153.83 411.758 151.506 411.758 148.977C411.758 143 405.581 138.16 397.964 138.16Z" fill="#FBD682"/>
<path d="M355.856 298.624C354.027 300.423 351.738 301.496 349.243 301.496C343.258 301.496 338.414 295.33 338.414 287.728C338.414 280.126 343.258 273.955 349.243 273.955C351.738 273.955 354.027 275.03 355.856 276.827V243.776H387.114C385.266 241.937 384.162 239.621 384.162 237.102C384.162 231.128 390.34 226.293 397.964 226.293C405.589 226.293 411.758 231.128 411.758 237.102C411.758 239.618 410.658 241.937 408.81 243.776H436.601C423.303 281.33 393.484 311.095 355.856 324.368V298.624Z" fill="#EA9B26"/>
<path d="M397.964 226.293C390.34 226.293 384.162 231.128 384.162 237.102C384.162 239.618 385.266 241.937 387.114 243.776H355.856V209.964C357.776 212.156 360.313 213.495 363.103 213.495C369.083 213.495 373.932 207.329 373.932 199.727C373.932 192.125 369.083 185.951 363.103 185.951C360.313 185.951 357.778 187.29 355.856 189.482V155.67H387.132C385.271 153.83 384.162 151.506 384.162 148.977C384.162 143.001 390.34 138.16 397.964 138.16C405.589 138.16 411.758 143.001 411.758 148.977C411.758 151.506 410.65 153.833 408.788 155.67H436.593C441.477 169.451 444.13 184.278 444.13 199.727C444.13 215.176 441.477 229.998 436.598 243.779H408.807C410.655 241.94 411.756 239.623 411.756 237.104C411.756 231.131 405.578 226.296 397.962 226.296L397.964 226.293Z" fill="#EA9B26"/>
<path d="M267.588 324.369V298.73C265.78 300.469 263.522 301.497 261.08 301.497C255.101 301.497 250.251 295.331 250.251 287.729C250.251 280.127 255.101 273.956 261.08 273.956C263.522 273.956 265.78 274.984 267.588 276.723V243.78H300.873C299.025 241.941 297.922 239.625 297.922 237.106C297.922 231.132 304.099 226.297 311.723 226.297C319.348 226.297 325.518 231.132 325.518 237.106C325.518 239.622 324.417 241.941 322.569 243.78H355.859V276.831C354.03 275.031 351.741 273.959 349.246 273.959C343.261 273.959 338.417 280.125 338.417 287.732C338.417 295.339 343.261 301.5 349.246 301.5C351.741 301.5 354.03 300.427 355.859 298.628V324.372C342.052 329.241 327.202 331.887 311.723 331.887C296.245 331.887 281.398 329.238 267.588 324.372V324.369Z" fill="#EA9B26"/>
<path d="M311.721 173.467C304.097 173.467 297.919 168.627 297.919 162.658C297.919 159.989 299.152 157.546 301.2 155.668H267.585V125.818C265.777 127.557 263.52 128.585 261.078 128.585C255.098 128.585 250.248 122.419 250.248 114.812C250.248 107.205 255.098 101.044 261.078 101.044C263.52 101.044 265.777 102.072 267.585 103.811V75.0841C281.393 70.2146 296.243 67.5664 311.721 67.5664C327.199 67.5664 342.047 70.2146 355.856 75.0841V103.916C354.027 102.119 351.738 101.044 349.243 101.044C343.258 101.044 338.414 107.21 338.414 114.812C338.414 122.414 343.258 128.585 349.243 128.585C351.738 128.585 354.027 127.513 355.856 125.713V155.668H322.236C324.282 157.546 325.515 159.989 325.515 162.658C325.515 168.627 319.337 173.467 311.721 173.467Z" fill="#EA9B26"/>
<path d="M236.449 138.16C228.833 138.16 222.655 143 222.655 148.977C222.655 151.506 223.764 153.833 225.625 155.67H186.849C200.147 118.121 229.965 88.3584 267.585 75.0859V103.813C265.777 102.074 263.52 101.046 261.078 101.046C255.098 101.046 250.248 107.212 250.248 114.814C250.248 122.416 255.098 128.587 261.078 128.587C263.52 128.587 265.777 127.559 267.585 125.82V155.67H247.278C249.14 153.83 250.248 151.506 250.248 148.977C250.248 143 244.071 138.16 236.447 138.16H236.449Z" fill="#FBD682"/>
<path d="M397.964 138.16C390.34 138.16 384.162 143 384.162 148.977C384.162 151.506 385.271 153.833 387.132 155.67H355.856V125.715C354.027 127.512 351.738 128.587 349.243 128.587C343.258 128.587 338.414 122.421 338.414 114.814C338.414 107.207 343.258 101.046 349.243 101.046C351.738 101.046 354.027 102.118 355.856 103.918V75.0859C393.476 88.3584 423.295 118.121 436.593 155.67H408.788C410.65 153.83 411.758 151.506 411.758 148.977C411.758 143 405.581 138.16 397.964 138.16Z" fill="#EA9B26"/>
<path d="M397.964 226.293C390.34 226.293 384.162 231.128 384.162 237.102C384.162 239.618 385.266 241.937 387.114 243.776H355.856V209.964C357.776 212.156 360.313 213.495 363.103 213.495C369.083 213.495 373.932 207.329 373.932 199.727C373.932 192.125 369.083 185.951 363.103 185.951C360.313 185.951 357.778 187.29 355.856 189.482V155.67H387.132C385.271 153.83 384.162 151.506 384.162 148.977C384.162 143.001 390.34 138.16 397.964 138.16C405.589 138.16 411.758 143.001 411.758 148.977C411.758 151.506 410.65 153.833 408.788 155.67H436.593C441.477 169.451 444.13 184.278 444.13 199.727C444.13 215.176 441.477 229.998 436.598 243.779H408.807C410.655 241.94 411.756 239.623 411.756 237.104C411.756 231.131 405.578 226.296 397.962 226.296L397.964 226.293Z" fill="#EA9B26"/>
<path d="M311.721 173.467C304.097 173.467 297.919 168.627 297.919 162.658C297.919 159.989 299.152 157.546 301.2 155.668H267.585V125.818C265.777 127.557 263.52 128.585 261.078 128.585C255.098 128.585 250.248 122.419 250.248 114.812C250.248 107.205 255.098 101.044 261.078 101.044C263.52 101.044 265.777 102.072 267.585 103.811V75.0841C281.393 70.2146 296.243 67.5664 311.721 67.5664C327.199 67.5664 342.047 70.2146 355.856 75.0841V103.916C354.027 102.119 351.738 101.044 349.243 101.044C343.258 101.044 338.414 107.21 338.414 114.812C338.414 122.414 343.258 128.585 349.243 128.585C351.738 128.585 354.027 127.513 355.856 125.713V155.668H322.236C324.282 157.546 325.515 159.989 325.515 162.658C325.515 168.627 319.337 173.467 311.721 173.467Z" fill="#EA9B26"/>
<path d="M236.449 138.16C228.833 138.16 222.655 143 222.655 148.977C222.655 151.506 223.764 153.833 225.625 155.67H186.849C200.147 118.121 229.965 88.3584 267.585 75.0859V103.813C265.777 102.074 263.52 101.046 261.078 101.046C255.098 101.046 250.248 107.212 250.248 114.814C250.248 122.416 255.098 128.587 261.078 128.587C263.52 128.587 265.777 127.559 267.585 125.82V155.67H247.278C249.14 153.83 250.248 151.506 250.248 148.977C250.248 143 244.071 138.16 236.447 138.16H236.449Z" fill="#EA9B26"/>
<path d="M436.596 156.33H407.183L408.324 155.202C410.137 153.41 411.098 151.257 411.098 148.978C411.098 143.376 405.206 138.82 397.964 138.82C390.723 138.82 384.822 143.376 384.822 148.978C384.822 151.257 385.781 153.41 387.597 155.202L388.738 156.33H355.194V127.165C353.406 128.533 351.371 129.25 349.241 129.25C342.905 129.25 337.751 122.775 337.751 114.818C337.751 106.86 342.905 100.391 349.241 100.391C351.374 100.391 353.406 101.108 355.194 102.475V75.0898H356.514V105.498L355.389 104.394C353.604 102.639 351.479 101.711 349.238 101.711C343.631 101.711 339.069 107.593 339.069 114.82C339.069 122.048 343.631 127.935 349.238 127.935C351.477 127.935 353.604 127.007 355.389 125.252L356.514 124.148V155.017H385.662C384.26 153.218 383.5 151.12 383.5 148.983C383.5 142.657 389.986 137.508 397.962 137.508C405.937 137.508 412.416 142.657 412.416 148.983C412.416 151.12 411.658 153.218 410.254 155.017H436.59V156.335L436.596 156.33Z" fill="#FDF6E6"/>
<path d="M356.516 324.371H355.196V300.074C353.409 301.442 351.374 302.158 349.243 302.158C342.907 302.158 337.754 295.687 337.754 287.732C337.754 279.777 342.907 273.297 349.243 273.297C351.376 273.297 353.409 274.014 355.196 275.382V243.121H385.651C384.257 241.324 383.502 239.235 383.502 237.108C383.502 230.784 389.989 225.641 397.964 225.641C405.94 225.641 412.418 230.787 412.418 237.108C412.418 239.235 411.663 241.327 410.269 243.121H436.601V244.439H407.21L408.342 243.314C410.145 241.519 411.098 239.374 411.098 237.108C411.098 231.511 405.206 226.958 397.964 226.958C390.723 226.958 384.822 231.511 384.822 237.108C384.822 239.374 385.776 241.522 387.579 243.314L388.711 244.439H356.516V278.404L355.392 277.3C353.607 275.545 351.482 274.617 349.241 274.617C343.633 274.617 339.071 280.501 339.071 287.734C339.071 294.967 343.633 300.844 349.241 300.844C351.479 300.844 353.607 299.916 355.392 298.161L356.516 297.057V324.374V324.371Z" fill="#FDF6E6"/>
<path d="M268.248 155.672H266.928V127.248C265.17 128.561 263.174 129.248 261.08 129.248C254.744 129.248 249.588 122.774 249.588 114.816C249.588 106.859 254.744 100.39 261.08 100.39C263.171 100.39 265.17 101.078 266.928 102.39V75.0859H268.248V105.365L267.131 104.29C265.376 102.601 263.282 101.707 261.083 101.707C255.476 101.707 250.911 107.589 250.911 114.816C250.911 122.044 255.473 127.931 261.083 127.931C263.285 127.931 265.376 127.038 267.131 125.349L268.248 124.273V155.672Z" fill="#FDF6E6"/>
<path d="M370.495 388.824H252.947V407.372H370.495V388.824Z" fill="#102048"/>
<path d="M369.835 389.482V406.712H253.607V389.482H369.835ZM371.155 388.164H252.287V408.029H371.155V388.164Z" fill="white"/>
<path d="M288.13 261.194H261.395V259.218H286.15V232.156H288.13V261.194Z" fill="#FDF6E6"/>
<path d="M152.825 431.372C115.888 416.29 87.5532 385.118 76.0982 346.963L114.814 348.842C113.058 346.915 112.068 344.547 112.192 342.033C112.483 336.064 118.887 331.535 126.496 331.904C134.11 332.273 140.044 337.403 139.754 343.371C139.632 345.885 138.418 348.149 136.483 349.893L156.748 350.876L155.145 383.782C153.424 381.958 151.219 380.82 148.78 380.704C142.808 380.414 137.663 386.338 137.291 393.937C136.921 401.531 141.467 407.924 147.439 408.213C149.878 408.332 152.183 407.415 154.073 405.766L152.825 431.375V431.372Z" fill="#EA9B26"/>
<path d="M80.94 376.434V433.36H198.893V376.434H80.94ZM153.294 393.337C153.294 395.706 151.351 397.645 148.978 397.645H130.849C128.476 397.645 126.533 395.706 126.533 393.337C126.533 390.968 128.476 389.029 130.849 389.029H148.978C151.351 389.029 153.294 390.968 153.294 393.337Z" fill="#D1D3D4" stroke="#2B455D" stroke-width="3.75" stroke-miterlimit="10"/>
<path opacity="0.2" d="M198.893 433.36C198.893 433.36 115.45 427.5 80.94 376.434V433.36H198.893Z" fill="#1F3C88"/>
<path d="M552.844 65.9179C552.844 66.7532 552.783 67.5674 552.659 68.3684H455C455 59.2197 462.424 51.7996 471.59 51.7996C474.283 51.7996 476.825 52.4399 479.077 53.5808C481.197 46.8642 487.477 42 494.901 42C504.067 42 509.93 46.0342 509.93 55.1829V55.3753C513.151 55.868 516.061 57.2725 518.392 59.3357C519.886 51.7152 528.215 48.5875 536.243 49.349C546.875 50.3582 552.844 56.7692 552.844 65.9179Z" fill="white" stroke="#D1D3D4" stroke-width="3.75" stroke-miterlimit="10"/>
<path d="M404.691 267.521C405.639 264.928 404.271 263.374 404.232 261.967C404.192 260.56 404.623 259.308 403.86 259.123C403.097 258.939 402.196 260.098 401.7 266.217L404.688 267.521H404.691Z" fill="#DE8686"/>
<path d="M405.523 269.992L404.533 273.976H398.321L394.522 265.504C393.975 264.482 392.492 260.379 392.624 259.515C392.872 257.902 394.841 261.9 394.934 261.965C394.583 260.753 393.392 256.938 393.944 256.079C394.604 255.049 396.605 259.51 397.12 260.853C396.864 259.61 395.414 254.906 396.122 254.224C396.969 253.404 398.933 258.598 399.237 260.224C399.158 259.004 398.572 254.84 399.387 254.941C400.515 255.078 402.484 262.382 402.484 262.382C402.484 262.382 404.504 265.425 405.52 269.997L405.523 269.992Z" fill="#DE8686"/>
<path d="M395.802 264.424C396.507 263.768 397.294 263.185 398.176 262.756C398.619 262.548 399.092 262.387 399.58 262.303C400.068 262.224 400.575 262.229 401.051 262.35L401.029 262.477C400.082 262.405 399.16 262.643 398.316 263.048C397.46 263.441 396.679 263.992 395.881 264.521L395.802 264.421V264.424Z" fill="#DE8686"/>
<path d="M401.697 263.942C401.28 263.955 400.887 264.124 400.728 264.477C400.562 264.819 400.53 265.238 400.565 265.644C400.591 266.055 400.676 266.466 400.792 266.867C400.905 267.267 401.051 267.665 401.251 268.029L401.148 268.105C400.855 267.768 400.67 267.362 400.517 266.954C400.372 266.54 400.269 266.11 400.237 265.665C400.219 265.225 400.237 264.751 400.486 264.337C400.538 264.232 400.639 264.15 400.715 264.06C400.813 263.992 400.916 263.923 401.024 263.876C401.14 263.852 401.251 263.81 401.365 263.805L401.703 263.81L401.695 263.939L401.697 263.942Z" fill="#DE8686"/>
<path d="M427.722 426.045L428.319 418.391H417.994L416.563 421.618C415.959 422.981 415.135 424.214 414.15 425.294C417.21 426.902 421.978 428.657 427.722 426.045Z" fill="#B17373"/>
<path d="M414.15 425.293C412.714 426.871 410.924 428.115 408.891 428.892L404.274 430.655C403.033 431.443 403.59 433.361 405.061 433.361H423.752C425.669 433.361 427.263 431.888 427.411 429.981L427.717 426.044C421.973 428.653 417.207 426.898 414.145 425.293H414.15Z" fill="#102048"/>
<path d="M453.011 426.045L452.414 418.391H462.739L464.17 421.618C464.775 422.981 465.599 424.214 466.583 425.294C463.524 426.902 458.756 428.657 453.011 426.045Z" fill="#B17373"/>
<path d="M466.581 425.293C468.017 426.871 469.807 428.115 471.84 428.892L476.457 430.655C477.698 431.443 477.141 433.361 475.67 433.361H456.979C455.062 433.361 453.468 431.888 453.32 429.981L453.014 426.044C458.758 428.653 463.524 426.898 466.586 425.293H466.581Z" fill="#102048"/>
<path d="M465.329 419.861H447.562L437.91 345.275L432.894 379.166L431.851 419.858H415.167C413.857 388.275 415.515 354.331 420.975 317.362L421.344 311.486L421.767 304.785L455.329 307.244L455.73 311.807L456.509 320.516L465.327 419.856L465.329 419.861Z" fill="#284056"/>
<path opacity="0.6" d="M456.512 320.522C453.352 325.289 431.316 325.123 420.856 319.289L421.347 311.492L455.733 311.814L456.512 320.522Z" fill="#102048"/>
<path d="M420.045 306.755C420.045 306.755 416.724 315.337 419.573 316.984C422.421 318.631 455.308 318.96 457.911 316.984C460.514 315.008 454.215 310.067 454.814 306.773C455.413 303.48 420.043 306.755 420.043 306.755H420.045Z" fill="#6D90B4"/>
<path d="M417.234 271.476C416.08 274.029 411.79 281.768 411.79 281.768L405.52 269.992C404.116 271.128 402.463 272.187 397.55 272.256C397.55 272.256 404.612 298.318 410.964 300.998C421.381 305.393 423.834 285.721 423.834 285.721L417.234 271.476Z" fill="#9AC4DB"/>
<path d="M417.234 271.478L418.931 267.502C419.604 265.924 420.79 264.58 422.35 263.861C422.501 263.792 422.651 263.729 422.807 263.668C425.756 262.554 431.223 260.801 436.292 260.857C438.106 260.857 444.861 260.775 455.833 263.576L458.898 302.687L422.598 301.947L417.236 271.481L417.234 271.478Z" fill="#9AC4DB"/>
<path opacity="0.3" d="M449.632 271.477C450.485 286.175 449.297 301.971 440.722 302.991L450.627 305.774L461.266 300.093L457.058 276.955L449.634 271.479L449.632 271.477Z" fill="#1F3C88"/>
<path d="M451.24 262.512C453.428 262.991 457.082 263.492 458.896 264.728C460.709 265.964 465.826 292.395 467.146 298.487C468.466 304.58 468.796 310.84 441.736 311.826L439.096 304.416L454.936 298.324L448.861 271.479L451.237 262.512H451.24Z" fill="#9AC4DB"/>
<path d="M422.07 273.491C422.26 276.136 422.347 278.785 422.435 281.433L422.514 285.406C422.524 286.732 422.532 288.057 422.503 289.383L422.31 289.388C422.21 288.065 422.144 286.742 422.083 285.417L421.946 281.443C421.891 278.795 421.833 276.144 421.878 273.494L422.07 273.488V273.491Z" fill="#1F3C88"/>
<path d="M452.253 300.793V302.316L444.7 309.13L444.106 306.321L452.253 300.793Z" fill="#102048"/>
<path d="M443.599 308.138L452.253 300.789L435.962 298.758L443.599 308.138Z" fill="white"/>
<path d="M444.7 309.128H413.371L408.126 284.238H439.455L444.7 309.128Z" fill="#102048"/>
<path d="M427.778 296.392C427.978 297.451 427.166 298.432 426.088 298.432C425.261 298.432 424.552 297.843 424.398 297.031L424.388 296.977C424.188 295.918 425 294.938 426.078 294.938C426.905 294.938 427.614 295.526 427.768 296.338L427.778 296.392Z" fill="white"/>
<path d="M425.344 235.459C421.83 226.558 436.514 223.265 437.947 230.714C437.947 230.714 442.142 228.537 446.308 230.846C454.334 235.288 449.151 247.799 446.308 247.799L431.809 245.91L425.344 235.459Z" fill="#284056"/>
<path d="M443.702 252.328V261.44C443.702 263.943 441.3 265.975 438.322 265.975C435.344 265.975 432.95 263.943 432.95 261.44V252.328H443.702Z" fill="#DE8686"/>
<path d="M441.387 255.744C440.006 257.568 437.044 259.67 432.952 259.715V254.914L441.387 255.744Z" fill="#3C1C16"/>
<path d="M443.702 237.598V253.197C443.702 253.197 440.635 258.401 434.357 257.971C431.242 257.753 429.671 255.811 428.852 252.696C428.53 251.516 428.324 250.159 428.179 248.67C427.942 246.172 427.876 243.281 427.791 240.159V237.598H443.702Z" fill="#DE8686"/>
<path d="M427.918 233.815C425.98 232.129 422.054 233.412 420.901 235.784C419.272 239.133 421.394 242.516 424.148 243.441C428.142 244.785 429.763 240.593 429.763 240.593C429.763 240.593 431.054 242.413 433.926 242.018C435.996 241.734 436.709 239.702 436.709 239.702C436.709 239.702 437.348 244.885 444.167 244.758C445.63 244.26 446.308 238.598 446.308 238.598L441.812 233.931L427.918 233.815Z" fill="#284056"/>
<path d="M441.736 311.823C438.385 312.505 434.874 312.911 431.471 312.392C429.354 312.068 427.276 311.343 425.566 310.028C424.156 308.945 422.934 307.396 422.163 305.794C421.978 305.406 421.846 304.835 422.168 304.484C422.522 304.102 423.161 304.761 423.501 305.014C425.156 306.255 426.389 308.089 426.389 308.089C426.389 308.089 423.821 303.881 424.465 303.203C424.958 302.682 425.711 302.808 428.295 307.09C428.295 307.09 428.784 308.144 429.251 307.596C429.502 307.301 427.775 303.986 429.032 303.699C429.996 303.48 430.901 306.611 431.561 307.846C432.385 308.805 433.816 307.846 433.816 307.846L440.785 309.156L441.736 311.825V311.823Z" fill="#F9B384"/>
<path d="M433.636 308.041C433.52 307.319 433.333 306.619 433.066 305.965C433.005 305.815 432.939 305.662 432.91 305.496C432.807 304.885 433.351 304.7 433.715 304.827C434.515 305.103 435.228 306.165 435.698 306.993C436.11 307.717 436.353 308.632 436.231 309.514C436.194 309.783 433.945 309.788 433.797 309.462C433.763 309.385 433.758 309.293 433.755 309.206C433.736 308.816 433.694 308.426 433.633 308.044L433.636 308.041Z" fill="#F9B384"/>
<path d="M436.392 332.82C436.815 335.529 437.226 338.241 437.604 340.955L438.715 349.102L439.742 357.26L440.218 361.344L440.648 365.434L440.392 365.468L439.758 361.405L439.17 357.336L438.066 349.189L437.05 341.031C436.72 338.309 436.419 335.584 436.134 332.86L436.39 332.826L436.392 332.82Z" fill="#2B455D"/>
<path d="M432.129 268.003C433.86 269.581 436.192 270.458 438.499 270.306C439.65 270.242 440.783 269.923 441.812 269.396C442.85 268.877 443.776 268.15 444.629 267.336L444.772 267.465C444.003 268.382 443.077 269.186 442.013 269.776C440.949 270.364 439.748 270.722 438.528 270.793C437.308 270.854 436.073 270.656 434.948 270.19C433.824 269.731 432.797 269.033 431.991 268.134L432.129 268V268.003Z" fill="#1F3C88"/>
<path d="M442.945 245.535C443.658 243.777 445.03 243.287 446.366 243.911C448.486 244.902 447.784 250.386 442.945 250.507V245.535Z" fill="#DE8686"/>
<path d="M444.009 246.528C443.908 246.009 444.067 245.466 444.442 245.039C444.637 244.836 444.946 244.678 445.255 244.702C445.564 244.731 445.809 244.894 445.978 245.092L445.862 245.247C445.638 245.171 445.432 245.107 445.255 245.134C445.08 245.15 444.927 245.239 444.793 245.381C444.645 245.513 444.542 245.706 444.439 245.898C444.341 246.096 444.262 246.306 444.201 246.53H444.009V246.528Z" fill="#284056"/>
<path d="M431.537 246.447C431.537 247.063 431.197 247.561 430.774 247.561C430.352 247.561 430.011 247.063 430.011 246.447C430.011 245.83 430.352 245.332 430.774 245.332C431.197 245.332 431.537 245.83 431.537 246.447Z" fill="#3C1C16"/>
<path d="M438.005 246.447C438.005 247.063 437.665 247.561 437.242 247.561C436.82 247.561 436.479 247.063 436.479 246.447C436.479 245.83 436.82 245.332 437.242 245.332C437.665 245.332 438.005 245.83 438.005 246.447Z" fill="#3C1C16"/>
<path d="M433.715 246.879C433.794 247.106 433.842 247.345 433.879 247.585C433.897 247.706 433.903 247.828 433.908 247.949C433.911 248.065 433.924 248.223 433.837 248.389C433.649 248.715 433.343 248.766 433.179 248.868C433.016 248.955 432.886 249.098 432.81 249.264C432.638 249.582 432.731 250.012 433.01 250.249C433.29 250.499 433.76 250.536 434.209 250.497L434.251 250.684C433.805 250.847 433.237 250.918 432.746 250.589C432.274 250.257 432.1 249.569 432.366 249.045C432.496 248.789 432.707 248.578 432.963 248.455C433.206 248.344 433.406 248.275 433.467 248.183C433.533 248.107 433.53 247.812 433.538 247.604C433.549 247.377 433.533 247.148 433.52 246.918L433.71 246.879H433.715Z" fill="#E28B6D"/>
<path d="M431.968 253.041C432.35 253.165 432.76 253.228 433.164 253.257C433.57 253.281 433.974 253.289 434.373 253.231C434.771 253.189 435.165 253.099 435.537 252.957C435.912 252.82 436.266 252.628 436.611 252.398L436.743 252.538C436.469 252.881 436.105 253.152 435.706 253.355C435.305 253.55 434.866 253.671 434.425 253.721C433.985 253.758 433.538 253.758 433.105 253.674C432.675 253.595 432.247 253.466 431.87 253.213L431.962 253.041H431.968Z" fill="#3C1C16"/>
<path d="M428.955 244.822C429.132 244.524 429.351 244.239 429.65 244.026C429.94 243.807 430.323 243.681 430.698 243.697C431.075 243.715 431.424 243.855 431.727 244.034C432.031 244.221 432.292 244.456 432.527 244.711L432.443 244.809C432.158 244.624 431.886 244.429 431.59 244.287C431.3 244.142 430.993 244.037 430.685 244.023C430.059 243.973 429.51 244.405 429.058 244.898L428.955 244.822Z" fill="#3C1C16"/>
<path d="M435.434 244.82C435.635 244.491 435.92 244.201 436.273 244.011C436.622 243.816 437.036 243.732 437.438 243.753C438.251 243.806 438.961 244.251 439.473 244.81L439.389 244.907C438.779 244.491 438.129 244.114 437.419 244.08C436.714 244.019 436.031 244.354 435.54 244.897L435.437 244.82H435.434Z" fill="#3C1C16"/>
<path d="M505.661 213.699H479.263C472.62 213.699 467.235 219.074 467.235 225.704V229.493C467.235 236.124 472.62 241.498 479.263 241.498H505.661C512.303 241.498 517.688 236.124 517.688 229.493V225.704C517.688 219.074 512.303 213.699 505.661 213.699Z" fill="#D1D3D4"/>
<path d="M474.907 231.203L462.737 241.498H487.08L474.907 231.203Z" fill="#D1D3D4"/>
<path d="M483.387 230.188C484.82 230.188 485.982 229.029 485.982 227.598C485.982 226.167 484.82 225.008 483.387 225.008C481.954 225.008 480.792 226.167 480.792 227.598C480.792 229.029 481.954 230.188 483.387 230.188Z" fill="white"/>
<path d="M492.463 230.188C493.896 230.188 495.058 229.029 495.058 227.598C495.058 226.167 493.896 225.008 492.463 225.008C491.03 225.008 489.868 226.167 489.868 227.598C489.868 229.029 491.03 230.188 492.463 230.188Z" fill="white"/>
<path d="M501.537 230.188C502.97 230.188 504.132 229.029 504.132 227.598C504.132 226.167 502.97 225.008 501.537 225.008C500.104 225.008 498.942 226.167 498.942 227.598C498.942 229.029 500.104 230.188 501.537 230.188Z" fill="white"/>
<path opacity="0.3" d="M201.06 318.124C200.954 318.717 200.54 319.336 199.851 319.96C195.468 323.944 180.156 327.847 166.257 322.859C166.843 321.309 167.558 319.742 168.374 318.121H201.057L201.06 318.124Z" fill="#1F3C88"/>
<path d="M241.961 241.735C234.337 241.735 228.16 246.571 228.16 252.544C228.16 255.06 229.26 257.379 231.111 259.218H197.826V226.17C196.018 227.909 193.76 228.937 191.318 228.937C185.339 228.937 180.489 222.771 180.489 215.161C180.489 207.551 185.341 201.393 191.318 201.393C193.76 201.393 196.018 202.421 197.826 204.16V171.109H231.441C229.395 172.988 228.16 175.431 228.16 178.1C228.16 184.068 234.337 188.911 241.961 188.911C249.586 188.911 255.756 184.068 255.756 178.1C255.756 175.431 254.523 172.988 252.477 171.109H286.097V204.924C288.016 202.729 290.551 201.393 293.344 201.393C299.323 201.393 304.173 207.559 304.173 215.167C304.173 222.774 299.323 228.934 293.344 228.934C290.553 228.934 288.019 227.596 286.097 225.404V259.216H252.807C254.655 257.379 255.756 255.06 255.756 252.541C255.756 246.568 249.578 241.733 241.961 241.733V241.735Z" fill="#EA9B26"/>
<path d="M179.636 343.831C180.494 343.991 181.344 344.144 182.21 344.186C183.074 344.231 183.94 344.26 184.803 344.189C185.666 344.142 186.529 344.047 187.385 343.907C188.24 343.773 189.095 343.599 189.938 343.391L190.001 343.572C189.18 343.912 188.327 344.144 187.461 344.331C186.595 344.508 185.714 344.621 184.829 344.677C183.945 344.721 183.053 344.705 182.171 344.6C181.286 344.508 180.42 344.292 179.581 344.012L179.634 343.828L179.636 343.831Z" fill="#1F3C88"/>
<path d="M163.752 278.074C162.434 279.724 158.229 293.742 158.229 293.742C158.229 293.742 162.63 296.493 169.412 295.763C169.158 295.758 163.749 278.074 163.749 278.074H163.752Z" fill="#EE6F57"/>
<path d="M177.168 427.085L177.683 420.477H168.77L167.535 423.262C167.015 424.437 166.302 425.502 165.452 426.434C168.094 427.82 172.21 429.335 177.168 427.082V427.085Z" fill="#F9B384"/>
<path d="M165.454 426.438C164.213 427.8 162.669 428.875 160.916 429.544L156.93 431.067C155.858 431.747 156.341 433.402 157.611 433.402H173.747C175.402 433.402 176.777 432.132 176.907 430.485L177.173 427.086C172.215 429.339 168.1 427.824 165.457 426.438H165.454Z" fill="#102048"/>
<path d="M203.613 427.085L203.098 420.477H212.011L213.246 423.262C213.766 424.437 214.479 425.502 215.329 426.434C212.687 427.82 208.571 429.335 203.613 427.082V427.085Z" fill="#F9B384"/>
<path d="M215.327 426.438C216.567 427.8 218.112 428.875 219.865 429.544L223.851 431.067C224.923 431.747 224.44 433.402 223.17 433.402H207.034C205.379 433.402 204.004 432.132 203.874 430.485L203.608 427.086C208.566 429.339 212.681 427.824 215.324 426.438H215.327Z" fill="#102048"/>
<path d="M215.87 423.056H197.813L184.684 344.362L180.579 423.056H164.074L165.05 342.267C163.366 334.752 163.915 328.947 166.257 322.86C166.843 321.311 167.558 319.743 168.374 318.122C168.921 317.042 169.517 315.927 170.164 314.789H199.046L199.56 318.122L199.851 319.959L215.87 423.053V423.056Z" fill="#2B455D"/>
<path d="M198.956 263.809L190.41 274.494L199.854 278.594L206.079 265.972L203.301 263.445L198.956 263.809Z" fill="#F9B384"/>
<path d="M185.392 276.179H175.587L176.247 262.867H186.052L185.392 276.179Z" fill="#F9B384"/>
<path d="M190.207 252.383C192.332 255.115 193.486 256.517 193.378 257.128C193.269 257.74 192.512 259.034 189.882 258.604C189.99 258.138 190.207 252.383 190.207 252.383Z" fill="#E28B6D"/>
<path d="M190.764 260.201C190.4 262.496 189.389 264.156 187.131 264.38C181.368 264.957 175.89 262.557 175.89 262.557L174.832 249.996L179.924 246.352L190.204 247.888C190.313 250.154 190.722 252.955 190.88 255.603C190.978 257.25 190.983 258.841 190.764 260.201Z" fill="#F9B384"/>
<path d="M186.028 249.567C188.525 251.917 191.527 252.112 193.385 250.526C197.316 247.169 194.745 239.066 186.028 242.089C186.028 242.089 176.421 237.725 170.848 243.48C165.275 249.232 169.507 255.411 162.627 264.473C162.627 264.473 175.782 273.142 191.25 264.937C188.776 260.515 183.911 264.009 183.771 256.581C183.723 256.473 183.002 250.286 186.028 249.569V249.567Z" fill="#102048"/>
<path d="M199.872 320.102C197.852 320.99 176.614 325.483 166.521 319.66C165.755 318.996 163.767 318.369 166.574 314.793C169.377 311.209 164.958 292.145 163.749 278.074C167.453 274.496 172.474 271.948 177.208 271.025C181.215 270.24 185.529 270.578 189.048 271.025C192.564 271.473 198.394 273.824 198.394 273.824L197.945 289.824C197.945 289.824 197.805 290.582 197.633 291.839C197.633 291.839 197.632 291.839 197.628 291.839C197.33 294.013 196.91 297.689 196.897 301.47C196.865 306.055 197.425 310.811 199.489 313.262C203.093 317.552 201.886 319.204 199.872 320.1V320.102Z" fill="#EE6F57"/>
<path d="M208.967 283.79L206.533 297.447C206.512 297.439 206.498 297.434 206.485 297.42L203.425 295.494L203.338 295.434C203.291 295.399 203.243 295.368 203.196 295.339L191.355 287.887L186.363 270.73C191.239 271.455 196.575 271.819 199.912 274.833C202.319 277.015 206.255 281.023 208.967 283.79Z" fill="#EE6F57"/>
<path d="M224.406 266.569C224.406 266.569 220.535 292.566 219.862 295.17C219.77 295.525 219.664 295.881 219.532 296.242C218.719 298.529 217.095 300.761 213.896 300.537C213.183 300.492 212.317 300.247 211.393 299.892C209.809 299.286 208.048 298.342 206.527 297.449L208.964 283.794C210.007 284.854 210.873 285.731 211.401 286.245L215.622 265.312L224.406 266.572V266.569Z" fill="#F9B384"/>
<path d="M215.635 267.287C215.237 264.694 215.746 261.912 216.324 258.758L225.322 258.842C224.152 261.556 226.309 264.27 224.408 266.565L220.25 271.016L215.638 267.287H215.635Z" fill="#F9B384"/>
<path d="M206.079 265.969C208.299 264.472 210.773 258.883 210.773 258.883C209.051 258.796 202.813 258.651 200.395 258.883C200.395 258.883 200.411 262.237 198.953 263.803C198.085 264.735 206.076 265.966 206.076 265.966L206.079 265.969Z" fill="#F9B384"/>
<path d="M185.212 256.243C184.982 254.904 184.196 254.129 182.892 253.745C182.036 253.494 180.856 253.895 180.552 254.867C180.011 256.593 180.84 260.943 184.803 259.001C185.246 258.806 185.5 257.911 185.212 256.243Z" fill="#F9B384"/>
<path d="M166.735 301.686C166.463 300.073 166.199 298.461 165.959 296.843L165.259 291.989L164.625 287.128C164.425 285.504 164.243 283.881 164.079 282.253L164.272 282.227C164.551 283.839 164.81 285.452 165.053 287.07L165.745 291.923L166.373 296.788C166.576 298.411 166.756 300.034 166.925 301.66L166.732 301.686H166.735Z" fill="#284056"/>
<path opacity="0.3" d="M197.628 291.838C197.33 294.012 196.91 297.688 196.897 301.469C194.006 296.252 192.725 288.75 192.725 288.75C192.725 288.75 195.181 290.291 197.628 291.841V291.838Z" fill="#284056"/>
<path d="M198.388 273.916C197.821 273.963 197.266 274.034 196.754 274.248C196.247 274.464 195.759 274.73 195.331 275.086C194.898 275.436 194.505 275.837 194.146 276.271C193.784 276.701 193.449 277.167 193.145 277.647L192.968 277.568C193.166 277.004 193.462 276.493 193.803 276.008C194.151 275.528 194.56 275.086 195.025 274.703C195.503 274.34 196.036 274.032 196.617 273.852C197.198 273.663 197.815 273.647 198.402 273.721L198.388 273.913V273.916Z" fill="#284056"/>
<path opacity="0.4" d="M190.764 260.204C190.624 260.236 190.479 260.247 190.326 260.247C189.016 260.247 187.966 259.195 187.966 257.891C187.966 256.587 189.019 255.535 190.326 255.535C190.513 255.535 190.703 255.559 190.88 255.609C190.978 257.256 190.983 258.847 190.764 260.207V260.204Z" fill="#EE6F57"/>
<path d="M183.087 255.928C182.868 255.588 182.617 255.235 182.342 255.161C182.216 255.124 182.076 255.153 181.92 255.243C181.759 255.319 181.614 255.464 181.44 255.588L181.294 255.485C181.381 255.277 181.498 255.079 181.693 254.919C181.878 254.763 182.181 254.647 182.469 254.731C182.744 254.829 182.934 255.021 183.053 255.227C183.174 255.432 183.245 255.654 183.261 255.883L183.09 255.936L183.087 255.928Z" fill="#284056"/>
<path opacity="0.4" d="M219.535 296.239C218.722 298.526 217.098 300.758 213.898 300.534C213.185 300.489 212.32 300.244 211.396 299.888C212.71 296.339 215.469 295.364 219.535 296.239Z" fill="#EE6F57"/>
<path d="M225.784 257.377C225.718 257.714 225.522 258.072 225.432 258.523C224.778 261.906 224.561 262.417 224.561 262.417L221.974 261.1C222.484 259.326 223.769 256.815 224.456 255.964C224.825 255.503 225.068 255.211 225.472 255.585C225.784 255.861 225.96 256.441 225.784 257.377Z" fill="#F9B384"/>
<path d="M225.784 257.378C224.706 257.083 225.256 256.582 225.472 255.586C225.784 255.863 225.96 256.442 225.784 257.378Z" fill="#E28B6D"/>
<path d="M202.055 255.629C202.002 255.966 202.066 256.372 201.995 256.825C201.459 260.23 201.49 260.783 201.49 260.783L204.373 260.42C204.497 258.58 204.141 255.782 203.784 254.749C203.594 254.19 203.465 253.832 202.958 254.048C202.573 254.204 202.208 254.688 202.058 255.629H202.055Z" fill="#F9B384"/>
<path d="M202.055 255.628C203.167 255.715 202.824 255.056 202.956 254.047C202.57 254.202 202.206 254.687 202.055 255.628Z" fill="#E28B6D"/>
<path d="M204.407 258.297C204.407 258.587 204.521 258.861 204.698 259.059C204.875 259.254 205.178 259.417 205.342 259.767C205.482 260.115 205.419 260.468 205.326 260.769C205.223 261.072 205.075 261.359 204.872 261.601L204.764 261.533C204.885 261.256 204.986 260.979 205.049 260.692C205.115 260.41 205.141 260.12 205.041 259.894C204.962 259.665 204.69 259.509 204.481 259.235C204.273 258.958 204.204 258.6 204.278 258.281L204.405 258.297H204.407Z" fill="#E28B6D"/>
<path d="M222.988 258.694C222.911 259.116 222.687 259.517 222.346 259.801C222 260.107 221.568 260.183 221.377 260.484C221.156 260.768 221.063 261.161 221.034 261.548C221.003 261.938 221.053 262.336 221.169 262.721L221.05 262.771C220.847 262.399 220.749 261.97 220.746 261.538C220.754 261.111 220.836 260.657 221.119 260.283C221.425 259.888 221.89 259.809 222.172 259.582C222.478 259.356 222.726 259.034 222.861 258.66L222.985 258.692L222.988 258.694Z" fill="#E28B6D"/>
<g opacity="0.3">
<path d="M166.685 314.727C167.244 315.417 168.065 315.86 168.889 316.234C169.726 316.595 170.594 316.906 171.484 317.14C172.368 317.391 173.269 317.596 174.18 317.741C175.088 317.894 176.004 317.999 176.925 317.997L176.954 318.252C176.009 318.431 175.048 318.4 174.103 318.31C173.158 318.207 172.226 318.02 171.31 317.767C170.402 317.493 169.496 317.185 168.649 316.734C167.814 316.286 166.959 315.736 166.468 314.858L166.69 314.727H166.685Z" fill="#284056"/>
</g>
<path d="M105.862 264.559H132.259C138.902 264.559 144.287 259.184 144.287 252.554V248.764C144.287 242.134 138.902 236.759 132.259 236.759H105.862C99.2188 236.759 93.8337 242.134 93.8337 248.764V252.554C93.8337 259.184 99.2188 264.559 105.862 264.559Z" fill="#D1D3D4"/>
<path d="M136.615 254.266L148.788 264.561H124.445L136.615 254.266Z" fill="#C2C4C5"/>
<path d="M128.72 253.185C130.115 252.857 130.979 251.461 130.649 250.069C130.32 248.677 128.922 247.815 127.527 248.143C126.133 248.472 125.269 249.867 125.598 251.259C125.927 252.651 127.325 253.514 128.72 253.185Z" fill="white"/>
<path d="M119.648 253.185C121.043 252.857 121.907 251.461 121.578 250.069C121.249 248.677 119.851 247.815 118.456 248.143C117.061 248.472 116.197 249.867 116.527 251.259C116.856 252.651 118.253 253.514 119.648 253.185Z" fill="white"/>
<path d="M110.574 253.185C111.969 252.857 112.833 251.461 112.504 250.069C112.175 248.677 110.777 247.815 109.382 248.143C107.987 248.472 107.123 249.867 107.453 251.259C107.782 252.651 109.18 253.514 110.574 253.185Z" fill="white"/>
<path d="M42 433.363H570" stroke="#102048" stroke-width="3.75" stroke-miterlimit="10"/>
</g>
</g>
<defs>
<clipPath id="clip0_719_5406">
<rect width="528" height="527" fill="white" transform="translate(42 -24.4258)"/>
</clipPath>
</defs>
</svg>
