<svg width="67" height="67" viewBox="0 0 67 67" fill="none" xmlns="http://www.w3.org/2000/svg">
<path d="M65.8727 31C65.2502 31 64.7455 31.52 64.7455 32.1613C64.7455 50.091 50.5863 64.6774 33.1818 64.6774C23.8624 64.6774 14.996 60.3713 9.02471 53.0645H15.1455C15.768 53.0645 16.2727 52.5445 16.2727 51.9032C16.2727 51.2619 15.768 50.7419 15.1455 50.7419H6.12727C5.50474 50.7419 5 51.2619 5 51.9032V61.1935C5 61.8349 5.50474 62.3548 6.12727 62.3548C6.74981 62.3548 7.25455 61.8349 7.25455 61.1935V54.5054C13.652 62.3662 23.1731 67 33.1818 67C51.8292 67 67 51.3713 67 32.1613C67 31.52 66.4953 31 65.8727 31Z" fill="#F28521"/>
<path d="M50.7273 14.6774C50.7273 15.3009 51.232 15.8065 51.8545 15.8065H60.8727C61.4953 15.8065 62 15.3009 62 14.6774V5.64516C62 5.02165 61.4953 4.51613 60.8727 4.51613C60.2502 4.51613 59.7455 5.02165 59.7455 5.64516V12.1476C53.348 4.5051 43.8269 0 33.8182 0C15.1708 0 0 15.1945 0 33.871C0 34.4945 0.504736 35 1.12727 35C1.74981 35 2.25455 34.4945 2.25455 33.871C2.25455 16.4393 16.4137 2.25806 33.8182 2.25806C43.1376 2.25806 52.004 6.44453 57.9753 13.5484H51.8545C51.232 13.5484 50.7273 14.0539 50.7273 14.6774Z" fill="#F28521"/>
<circle cx="33.8748" cy="34.754" r="19.3751" fill="#F5F7FA" stroke="#828282" stroke-width="1.5"/>
<path d="M53.4696 56.902C53.7625 57.1949 54.2374 57.1949 54.5303 56.902C54.8232 56.6091 54.8232 56.1343 54.5303 55.8414L53.4696 56.902ZM46.0159 49.4483L53.4696 56.902L54.5303 55.8414L47.0765 48.3876L46.0159 49.4483Z" fill="#828282"/>
<path d="M32.4482 40.6641V42H24.0723V40.8311L28.2646 36.1641C28.7803 35.5898 29.1787 35.1035 29.46 34.7051C29.7471 34.3008 29.9463 33.9404 30.0576 33.624C30.1748 33.3018 30.2334 32.9736 30.2334 32.6396C30.2334 32.2178 30.1455 31.8369 29.9697 31.4971C29.7998 31.1514 29.5479 30.876 29.2139 30.6709C28.8799 30.4658 28.4756 30.3633 28.001 30.3633C27.4326 30.3633 26.958 30.4746 26.5771 30.6973C26.2021 30.9141 25.9209 31.2188 25.7334 31.6113C25.5459 32.0039 25.4521 32.4551 25.4521 32.9648H23.8262C23.8262 32.2441 23.9844 31.585 24.3008 30.9873C24.6172 30.3896 25.0859 29.915 25.707 29.5635C26.3281 29.2061 27.0928 29.0273 28.001 29.0273C28.8096 29.0273 29.501 29.1709 30.0752 29.458C30.6494 29.7393 31.0889 30.1377 31.3936 30.6533C31.7041 31.1631 31.8594 31.7607 31.8594 32.4463C31.8594 32.8213 31.7949 33.2021 31.666 33.5889C31.543 33.9697 31.3701 34.3506 31.1475 34.7314C30.9307 35.1123 30.6758 35.4873 30.3828 35.8564C30.0957 36.2256 29.7881 36.5889 29.46 36.9463L26.0322 40.6641H32.4482ZM36.2451 35.9092L34.9443 35.5752L35.5859 29.2031H42.1514V30.7061H36.9658L36.5791 34.1865C36.8135 34.0518 37.1094 33.9258 37.4668 33.8086C37.8301 33.6914 38.2461 33.6328 38.7148 33.6328C39.3066 33.6328 39.8369 33.7354 40.3057 33.9404C40.7744 34.1396 41.1729 34.4268 41.501 34.8018C41.835 35.1768 42.0898 35.6279 42.2656 36.1553C42.4414 36.6826 42.5293 37.2715 42.5293 37.9219C42.5293 38.5371 42.4443 39.1025 42.2744 39.6182C42.1104 40.1338 41.8613 40.585 41.5273 40.9717C41.1934 41.3525 40.7715 41.6484 40.2617 41.8594C39.7578 42.0703 39.1631 42.1758 38.4775 42.1758C37.9619 42.1758 37.4727 42.1055 37.0098 41.9648C36.5527 41.8184 36.1426 41.5986 35.7793 41.3057C35.4219 41.0068 35.1289 40.6377 34.9004 40.1982C34.6777 39.7529 34.5371 39.2314 34.4785 38.6338H36.0254C36.0957 39.1143 36.2363 39.5186 36.4473 39.8467C36.6582 40.1748 36.9336 40.4238 37.2734 40.5938C37.6191 40.7578 38.0205 40.8398 38.4775 40.8398C38.8643 40.8398 39.207 40.7725 39.5059 40.6377C39.8047 40.5029 40.0566 40.3096 40.2617 40.0576C40.4668 39.8057 40.6221 39.501 40.7275 39.1436C40.8389 38.7861 40.8945 38.3848 40.8945 37.9395C40.8945 37.5352 40.8389 37.1602 40.7275 36.8145C40.6162 36.4688 40.4492 36.167 40.2266 35.9092C40.0098 35.6514 39.7432 35.4521 39.4268 35.3115C39.1104 35.165 38.7471 35.0918 38.3369 35.0918C37.792 35.0918 37.3789 35.165 37.0977 35.3115C36.8223 35.458 36.5381 35.6572 36.2451 35.9092Z" fill="#212121"/>
</svg>
