<svg width="140" height="41" viewBox="0 0 140 41" fill="none" xmlns="http://www.w3.org/2000/svg">
<g id="Group">
<path id="Vector" d="M57.5452 13.7686V10.2656C54.9995 10.2656 52.9323 11.0496 52.9323 12.0171C52.9338 12.9832 54.9995 13.7686 57.5452 13.7686Z" fill="#828282"/>
<path id="Vector_2" d="M139.368 26.4228C139.205 27.0938 139.024 27.8264 138.851 28.6383C137.708 33.9955 134.564 34.2745 134.432 34.2848L125.704 35.6957L121.784 35.91L122.182 34.7722C122.599 33.5903 122.81 32.3703 122.81 31.1532C122.81 25.125 117.907 20.2243 111.88 20.2243C105.855 20.2243 100.949 25.125 100.949 31.1532C100.949 32.7887 101.317 34.3787 102.036 35.8777L102.56 36.97L101.246 37.0361L38.3769 36.9348C38.3769 36.9392 37.0702 37.0038 35.0398 37.0948L33.6847 37.1535L34.2793 35.9364C35.0192 34.4228 35.3936 32.8122 35.3936 31.1532C35.3936 25.125 30.4915 20.2243 24.4647 20.2243C18.438 20.2243 13.5343 25.125 13.5343 31.1532C13.5343 33.0089 14.0115 34.8485 14.9159 36.4664L15.5883 37.6733L14.2082 37.663C13.6753 37.66 13.1717 37.6498 12.7078 37.6395C9.49692 37.5543 1.89925 37.1359 0.705643 35.0981C0.463394 34.6826 0.451645 34.1996 0.677734 33.7738C0.997787 33.169 0.883286 32.2778 0.690948 30.8096C0.577911 29.9596 0.438431 28.8952 0.357681 27.612C0.111023 23.6803 1.81114 22.3648 2.00494 22.2268C2.12239 22.1299 6.08934 18.9206 15.0656 15.5923C23.6822 12.3976 42.4466 10.3568 44.5681 10.1322C49.206 7.52185 59.4082 3.71347 64.3382 1.87387C65.7315 1.35415 66.7416 0.978304 67.1145 0.819744C67.7399 0.555477 68.3331 0.421875 68.8777 0.421875C69.9128 0.421875 70.4398 0.897556 70.5353 0.992985L70.6557 1.11337L70.7144 1.26606C71.2987 2.76211 72.46 3.79569 72.4718 3.80449L73.2954 4.52976L72.3602 5.0994C68.8396 7.23409 62.6087 9.65654 60.6884 10.3847L60.7838 11.6474L78.1829 10.7239C78.2328 8.9254 78.6351 5.22713 81.0472 5.07885C83.4403 4.94084 84.2463 8.37925 84.493 10.097L100.29 9.07956C100.327 8.14288 100.537 7.12692 101.27 6.36495C102.171 5.42827 103.663 5.02453 106.097 5.08178C109.716 5.16694 111.015 6.83182 111.453 7.73767C114.022 8.09149 119.295 8.67582 119.974 8.75069C121.185 8.66554 122.455 8.62296 123.748 8.62296C131.378 8.62296 137.727 10.0706 137.994 10.1322L138.556 10.2614L138.613 10.834C139.095 15.5717 138.517 18.3289 138.132 19.5519C140.678 21.0641 140.12 23.347 139.368 26.4228ZM137.185 14.2974C135.981 14.8332 133.704 15.5981 130.27 15.7273C131.032 16.9254 133.105 19.6165 136.402 19.5812L136.411 19.5651C136.42 19.5504 137.178 17.9648 137.185 14.2974ZM43.2893 11.8955C44.088 12.5018 45.5077 13.0333 47.6894 12.0115C48.4587 11.6488 49.3411 11.226 50.3188 10.7547C54.4576 8.76537 60.0909 6.05517 66.5199 3.62244C66.4377 3.42571 66.3554 3.16732 66.2953 2.86047C65.8915 3.01316 65.4232 3.18787 64.9005 3.38166C59.9558 5.22713 49.6684 9.06781 45.2185 11.6136L45.0687 11.6973L44.8999 11.7149C44.8661 11.7193 44.2774 11.7824 43.2893 11.8955ZM3.81224 22.9037C5.70175 23.4557 8.89792 23.0696 10.1737 22.8273C12.5595 21.8877 14.4226 20.0202 15.2785 19.0468C13.4506 19.0439 11.3952 19.2524 10.0842 19.4139C6.90857 20.904 4.85902 22.1887 3.81224 22.9037ZM136.793 20.6677L136.145 20.3726C131.603 20.2448 129.247 15.5703 129.222 15.5189L128.941 14.9463L129.58 14.9404C133.597 14.892 136.115 13.9245 137.175 13.4106C137.158 12.8424 137.125 12.2361 137.07 11.5798C135.347 11.2289 129.91 10.2321 123.751 10.2321C122.47 10.2321 121.213 10.2746 120.018 10.3598L119.946 10.3642L119.874 10.3583C119.604 10.329 113.257 9.63158 110.757 9.26308L110.197 9.18086L110.084 8.62737C110.07 8.56571 109.585 6.77163 106.062 6.69088C104.172 6.64683 102.984 6.90376 102.431 7.48074C102.015 7.91091 101.857 8.60681 101.904 9.80336L101.935 10.5873L83.0483 11.803L82.9823 11.0175C82.8281 9.19994 82.116 6.68354 81.1867 6.68354C80.2045 6.74373 79.7479 9.54936 79.7934 11.4682L79.8111 12.2478L59.301 13.3372L58.9941 9.29831L59.5653 9.0869C59.6387 9.06047 66.5067 6.52204 70.6615 4.22438C70.2328 3.7164 69.7072 2.98673 69.3226 2.0985C69.1097 2.02216 68.4446 2.00454 67.7429 2.30111C67.596 2.36277 67.367 2.45379 67.0675 2.56831C67.1644 3.22017 67.4155 3.60776 67.4184 3.61363L67.7076 4.03793L67.2275 4.21851C60.6576 6.67913 54.8877 9.45246 50.6741 11.48C49.6934 11.9527 48.8096 12.3785 48.0359 12.7397C47.0273 13.2124 46.1508 13.3944 45.3976 13.3944C43.8223 13.3944 42.7931 12.6002 42.2469 12.0188C36.4169 12.7118 22.4798 14.5616 15.6294 17.1045C14.4857 17.5288 13.4316 17.9501 12.4494 18.3641C13.6518 18.2702 14.9658 18.21 16.1388 18.2614L16.8935 18.2937L16.4442 18.9029C16.3473 19.0351 13.988 22.1989 10.3998 23.5981C10.2222 23.6377 8.31065 23.9945 6.31691 23.9945C5.13358 23.9945 3.92822 23.8638 3.03265 23.4748C3.00623 23.4939 2.98714 23.51 2.98714 23.51C2.94455 23.5423 1.78326 24.4981 1.97118 27.5151C2.049 28.7454 2.17966 29.7335 2.29269 30.6041C2.50705 32.2455 2.65387 33.3584 2.18407 34.3758C2.786 34.8926 5.875 35.8513 12.7591 36.0348C12.812 36.0348 12.8678 36.0377 12.9236 36.0377C12.2732 34.4962 11.9326 32.8313 11.9326 31.1561C11.9326 24.2411 17.5571 18.6152 24.472 18.6152C31.3841 18.6152 37.0115 24.2411 37.0115 31.1561C37.0115 32.6228 36.7561 34.0557 36.2525 35.4284C37.5606 35.3697 38.3461 35.3316 38.3461 35.3316L100.105 35.4284C99.6017 34.0543 99.3463 32.6228 99.3463 31.1561C99.3463 24.2411 104.972 18.6152 111.886 18.6152C118.801 18.6152 124.427 24.2411 124.427 31.1561C124.427 32.1706 124.299 33.1822 124.049 34.1776L125.578 34.091L134.254 32.6918C134.394 32.6742 136.41 32.3938 137.283 28.305C137.459 27.477 137.644 26.7282 137.81 26.044C138.662 22.5366 138.803 21.5809 136.793 20.6677Z" fill="#828282"/>
<path id="Vector_3" d="M80.294 18.0197L86.2047 17.4912C86.5644 17.4603 86.8302 17.1417 86.7993 16.7835C86.7656 16.4238 86.4484 16.1566 86.0887 16.1904L80.1794 16.7189C79.8183 16.7512 79.554 17.0683 79.5863 17.428C79.6186 17.7877 79.9357 18.052 80.294 18.0197Z" fill="#828282"/>
<path id="Vector_4" d="M33.8875 31.1516C33.8875 36.3532 29.668 40.5742 24.4649 40.5742C19.2632 40.5742 15.0423 36.3532 15.0423 31.1516C15.0423 25.947 19.2632 21.7305 24.4649 21.7305C29.668 21.729 33.8875 25.947 33.8875 31.1516ZM29.2833 27.468L26.4058 30.347H30.474C30.3316 29.2753 29.9117 28.2902 29.2833 27.468ZM28.7225 26.8279L28.79 26.8925C28.7665 26.869 28.7431 26.8499 28.7225 26.8279ZM28.1455 26.3331C27.3233 25.7047 26.3426 25.2834 25.2694 25.1425V29.2092L28.1455 26.3331ZM23.6603 25.1425C22.5856 25.2834 21.602 25.7047 20.7827 26.3331L23.6603 29.2092V25.1425ZM20.1382 26.8954L20.2087 26.8264C20.1852 26.8455 20.1602 26.8734 20.1382 26.8954ZM19.6464 27.468C19.018 28.2902 18.5952 29.2738 18.4543 30.347H22.521L19.6464 27.468ZM18.4543 31.9576C18.5952 33.0294 19.018 34.0145 19.6464 34.8322L22.521 31.9576H18.4543ZM20.2087 35.4768L20.1382 35.4078C20.1602 35.4312 20.1852 35.4547 20.2087 35.4768ZM20.7827 35.9715C21.602 36.5999 22.5856 37.0213 23.6603 37.1622V33.0954L20.7827 35.9715ZM25.2694 37.1622C26.3426 37.0213 27.3233 36.5999 28.1455 35.9715L25.2694 33.0954V37.1622ZM28.7886 35.4078L28.721 35.4768C28.743 35.4547 28.7665 35.4312 28.7886 35.4078ZM29.2833 34.8322C29.9117 34.0145 30.3316 33.0294 30.4755 31.9576H26.4072L29.2833 34.8322Z" fill="#828282"/>
<path id="Vector_5" d="M121.303 31.1516C121.303 36.3532 117.083 40.5742 111.88 40.5742C106.678 40.5742 102.459 36.3532 102.459 31.1516C102.459 25.947 106.678 21.7305 111.88 21.7305C117.083 21.729 121.303 25.947 121.303 31.1516ZM116.7 27.468L113.824 30.347H117.892C117.75 29.2753 117.327 28.2902 116.7 27.468ZM116.144 26.8294L116.201 26.8881C116.182 26.869 116.164 26.8499 116.144 26.8294ZM115.562 26.3302C114.741 25.7048 113.759 25.2834 112.686 25.1425V29.2092L115.562 26.3302ZM111.075 25.1425C110.002 25.2834 109.019 25.7048 108.199 26.3302L111.075 29.2092V25.1425ZM107.561 26.8895L107.619 26.8308C107.599 26.8499 107.578 26.869 107.561 26.8895ZM107.063 27.468C106.435 28.2902 106.013 29.2738 105.869 30.347H109.939L107.063 27.468ZM105.869 31.9576C106.013 33.0294 106.435 34.0115 107.063 34.8322L109.938 31.9576H105.869ZM107.627 35.4768L107.553 35.4048C107.577 35.4312 107.602 35.4547 107.627 35.4768ZM108.199 35.9715C109.019 36.5999 110.002 37.0183 111.075 37.1622V33.0954L108.199 35.9715ZM112.686 37.1622C113.759 37.0183 114.741 36.5999 115.562 35.9715L112.686 33.0954V37.1622ZM116.207 35.4078L116.138 35.4768C116.161 35.4547 116.185 35.4312 116.207 35.4078ZM116.7 34.8322C117.327 34.0115 117.748 33.0294 117.891 31.9576H113.824L116.7 34.8322Z" fill="#828282"/>
<path id="Vector_6" d="M86.7203 24.9896C86.3929 25.5916 86.0949 26.2009 85.7484 26.794L84.7133 28.5807L84.4549 29.0256C84.3918 29.1298 84.2641 29.2605 84.1731 29.3779C83.9763 29.6202 83.7884 29.8698 83.53 30.0518L83.1747 30.3572C83.0514 30.4512 82.9075 30.5231 82.7783 30.6083C82.5199 30.7888 82.2336 30.9268 81.9444 31.0502C81.664 31.1955 81.3483 31.266 81.0503 31.3717C80.7581 31.451 80.4381 31.5229 80.1738 31.5508C77.5003 31.5787 74.8239 31.6521 72.1518 31.6991L64.1049 31.9487C61.4226 32.0588 58.7418 32.1439 56.0609 32.2761C53.5093 32.3994 50.9562 32.5213 48.4045 32.6739C48.1946 32.2496 47.9758 31.8268 47.8158 31.3717C47.7101 31.0869 47.5779 30.8094 47.4855 30.5172L47.1977 29.6407C47.1008 29.3501 47.0347 29.0491 46.951 28.751C46.8703 28.4574 46.7925 28.1564 46.7367 27.8525C46.5987 27.2506 46.4989 26.6384 46.3946 26.0232C46.2038 24.7929 46.0834 23.5494 46.0305 22.2971C45.9923 21.0477 45.9821 19.7895 46.0613 18.5312C45.8235 19.7704 45.6855 21.0315 45.6268 22.2971C45.5636 23.5597 45.5725 24.834 45.6547 26.1098C45.6972 26.7441 45.7662 27.3783 45.8675 28.014C45.9057 28.3312 45.9659 28.6483 46.0276 28.9625C46.0951 29.2766 46.1421 29.5952 46.2243 29.905L46.468 30.8446C46.5458 31.1588 46.6662 31.4642 46.7675 31.771C46.9554 32.3935 47.2491 32.9778 47.5001 33.5798L47.6396 33.9145L48.061 33.9101C50.7462 33.891 53.43 33.8323 56.1123 33.7765C58.7961 33.7237 61.4784 33.6253 64.1607 33.5504L72.2076 33.2436C74.887 33.1085 77.5693 32.9984 80.2502 32.8384L80.2927 32.8354H80.3015C80.7156 32.7694 81.0518 32.6681 81.4129 32.558C81.7594 32.42 82.1162 32.3157 82.4406 32.1293C82.7768 31.9692 83.1013 31.793 83.4037 31.5655C83.555 31.4554 83.7165 31.3599 83.8589 31.2381L84.2685 30.849C84.5577 30.6068 84.7765 30.2955 84.9908 29.9843C85.0995 29.8243 85.2081 29.7039 85.3167 29.5071L85.5443 29.0432L86.4619 27.1919C86.619 26.8865 86.7394 26.5562 86.8789 26.239L87.2811 25.2789L88.0783 23.3527C88.5893 22.071 89.0943 20.7922 89.5538 19.49C88.9269 20.7188 88.2898 21.9388 87.679 23.1706L86.7203 24.9896Z" fill="#828282"/>
</g>
</svg>
