<svg width="78" height="71" viewBox="0 0 78 71" fill="none" xmlns="http://www.w3.org/2000/svg">
<g id="Group 1000001790">
<path id="Vector" d="M51.4653 48.9851C50.1262 48.9851 49.0479 47.8837 49.0479 46.5159C49.0479 45.1475 50.1262 44.046 51.4653 44.046C52.8044 44.046 53.8827 45.1475 53.8827 46.5159C53.8827 47.8837 52.8044 48.9851 51.4653 48.9851ZM29.8897 36.8051C31.1421 37.1463 31.648 35.2023 30.3978 34.8617L26.2283 33.7214C24.976 33.3801 24.4707 35.3241 25.7208 35.6648L29.8897 36.8051ZM36.4604 31.2881C36.1264 32.5673 38.0295 33.084 38.363 31.8071L39.48 27.5487C39.8141 26.2695 37.9109 25.7534 37.5774 27.0303L36.4604 31.2881ZM32.0576 32.6582C32.7045 33.7997 34.4084 32.7937 33.761 31.6499L31.6026 27.8317C30.9552 26.6896 29.2512 27.6962 29.8992 28.8394L32.0576 32.6582ZM17.7354 23.3607C17.7354 24.6856 19.7074 24.6856 19.7074 23.3607C19.7074 22.5044 20.3884 21.8088 21.2267 21.8088C22.5244 21.8088 22.5244 19.7939 21.2267 19.7939C19.2995 19.7939 17.7354 21.3915 17.7354 23.3607ZM19.6392 27.3933C18.0314 26.7319 16.9727 25.1389 16.9727 23.3607C16.9727 20.9606 18.8775 19.0149 21.2267 19.0149C23.5764 19.0149 25.4813 20.9606 25.4813 23.3607C25.4813 25.1389 24.422 26.7319 22.8148 27.3933H19.6392ZM17.8406 28.6988V49.9923C17.8406 50.549 18.2821 51 18.8266 51H23.6274C24.1724 51 24.6139 50.549 24.6139 49.9923V47.3818L27.3766 47.3961C27.7857 49.4819 29.5926 51 31.6815 51C33.7559 51 35.5511 49.5064 35.9781 47.4401L47.1816 47.4973C47.6299 49.535 49.4138 51 51.4653 51C53.5022 51 55.2744 49.5584 55.7394 47.5413L59.0142 47.5619C59.5586 47.5619 60.0002 47.1109 60.0002 46.5542V37.7145C60.0002 37.1583 59.5586 36.7073 59.0142 36.7073H56.3292L52.2884 31.7299C52.1083 31.4859 51.8223 31.3281 51.5005 31.3281H41.3529C41.1873 31.3292 41.0183 31.3715 40.8638 31.4618L27.6693 39.1995H24.6139V28.6982C26.3822 27.527 27.4538 25.5224 27.4538 23.3607C27.4538 19.8488 24.6648 17 21.2267 17C17.7886 17 15.0002 19.8488 15.0002 23.3607C15.0002 25.5259 16.0712 27.5247 17.8406 28.6988ZM19.8132 29.5562C20.2676 29.6636 20.7404 29.7208 21.2267 29.7208C21.7136 29.7208 22.187 29.6636 22.6414 29.5562C22.6414 36.0323 22.6414 42.5084 22.6414 48.9851H19.8132V29.5562ZM31.6815 48.9851C30.3424 48.9851 29.2641 47.8837 29.2641 46.5159C29.2641 45.1475 30.3424 44.046 31.6815 44.046C33.0212 44.046 34.0995 45.1475 34.0995 46.5159C34.0995 47.8837 33.0212 48.9851 31.6815 48.9851ZM35.9423 45.4333C35.4576 43.4441 33.6961 42.0317 31.6815 42.0317C29.6832 42.0317 27.9323 43.4213 27.432 45.3904L24.6139 45.3755V41.2143H27.93C28.1253 41.2143 28.3078 41.1566 28.4611 41.0566L41.6143 33.343H51.0383L55.1082 38.3558C55.3024 38.5965 55.5839 38.7199 55.867 38.7205L58.0276 38.7216V45.5459L55.7495 45.5339C55.3007 43.4956 53.5179 42.0317 51.4653 42.0317C49.4289 42.0317 47.6562 43.4733 47.1911 45.491L35.9423 45.4333Z" fill="#828282"/>
<g id="Ellipse 86">
<mask id="path-2-inside-1_719_5053" fill="white">
<path d="M70.6263 35.5016C70.6263 27.5471 67.9187 19.8296 62.9489 13.6187C57.9791 7.40784 51.0433 3.07363 43.2824 1.32919C35.5216 -0.415255 27.3981 0.533978 20.2486 4.02071C13.099 7.50744 7.34927 13.324 3.94532 20.5133C0.541362 27.7026 -0.314019 35.8365 1.51991 43.5767C3.35384 51.3169 7.76783 58.2022 14.0357 63.1C20.3035 67.9977 28.0518 70.6161 36.0057 70.5242C43.9596 70.4324 51.6454 67.6358 57.7985 62.5947L56.2092 60.6549C50.4967 65.3351 43.3612 67.9315 35.9767 68.0167C28.5923 68.102 21.3987 65.6711 15.5797 61.124C9.76061 56.5769 5.66265 50.1845 3.96002 42.9985C2.2574 35.8125 3.05154 28.261 6.21178 21.5864C9.37202 14.9118 14.7101 9.51172 21.3478 6.27463C27.9855 3.03754 35.5273 2.15627 42.7325 3.77582C49.9377 5.39536 56.377 9.41925 60.9909 15.1854C65.6049 20.9516 68.1187 28.1166 68.1187 35.5016H70.6263Z"/>
</mask>
<path d="M70.6263 35.5016C70.6263 27.5471 67.9187 19.8296 62.9489 13.6187C57.9791 7.40784 51.0433 3.07363 43.2824 1.32919C35.5216 -0.415255 27.3981 0.533978 20.2486 4.02071C13.099 7.50744 7.34927 13.324 3.94532 20.5133C0.541362 27.7026 -0.314019 35.8365 1.51991 43.5767C3.35384 51.3169 7.76783 58.2022 14.0357 63.1C20.3035 67.9977 28.0518 70.6161 36.0057 70.5242C43.9596 70.4324 51.6454 67.6358 57.7985 62.5947L56.2092 60.6549C50.4967 65.3351 43.3612 67.9315 35.9767 68.0167C28.5923 68.102 21.3987 65.6711 15.5797 61.124C9.76061 56.5769 5.66265 50.1845 3.96002 42.9985C2.2574 35.8125 3.05154 28.261 6.21178 21.5864C9.37202 14.9118 14.7101 9.51172 21.3478 6.27463C27.9855 3.03754 35.5273 2.15627 42.7325 3.77582C49.9377 5.39536 56.377 9.41925 60.9909 15.1854C65.6049 20.9516 68.1187 28.1166 68.1187 35.5016H70.6263Z" fill="#F28521" stroke="#F28521" stroke-width="2" mask="url(#path-2-inside-1_719_5053)"/>
</g>
<path id="Vector_2" d="M60.7946 55.1069H66.2132V41.0312H72.5811V55.1069H77.9998L69.3774 64.3813L60.7946 55.1069Z" fill="#F28521"/>
</g>
</svg>
