<svg width="59" height="57" viewBox="0 0 59 57" fill="none" xmlns="http://www.w3.org/2000/svg">
<g id="Group 1000001789">
<path id="Vector" d="M46.1069 16.8438C45.8455 16.8428 45.5944 16.9456 45.4089 17.1297C45.2233 17.3138 45.1185 17.5641 45.1175 17.8255V54.8066H41.4138V27.0809C41.4135 26.9513 41.3877 26.823 41.3378 26.7034C41.2879 26.5838 41.2149 26.4752 41.123 26.3839C41.0311 26.2925 40.9221 26.2202 40.8022 26.171C40.6823 26.1218 40.5539 26.0967 40.4243 26.0972H32.3413C32.0809 26.0983 31.8315 26.2023 31.6476 26.3866C31.4636 26.5709 31.3601 26.8205 31.3595 27.0809V54.8066H27.6481V32.3688C27.6471 32.1088 27.5433 31.8597 27.3595 31.6758C27.1756 31.4919 26.9265 31.3881 26.6664 31.3871H18.5756C18.3156 31.3881 18.0665 31.4919 17.8826 31.6758C17.6987 31.8597 17.5949 32.1088 17.5939 32.3688V54.8066H13.8902V35.599C13.8892 35.3376 13.7843 35.0873 13.5988 34.9032C13.4132 34.7191 13.1621 34.6162 12.9008 34.6172H4.81771C4.55632 34.6162 4.30524 34.7191 4.11968 34.9032C3.93413 35.0873 3.8293 35.3376 3.82826 35.599V54.8066H1.90711C1.77703 54.8061 1.64814 54.8313 1.52787 54.8809C1.40759 54.9304 1.29831 55.0033 1.20633 55.0953C1.11436 55.1872 1.04149 55.2965 0.99195 55.4168C0.942406 55.5371 0.917162 55.666 0.917671 55.796C0.917923 55.9256 0.94373 56.0539 0.993614 56.1735C1.0435 56.2931 1.11648 56.4017 1.20838 56.4931C1.30029 56.5844 1.40931 56.6568 1.5292 56.706C1.6491 56.7552 1.77752 56.7802 1.90711 56.7797H57.1006C57.361 56.7787 57.6104 56.6747 57.7943 56.4904C57.9783 56.306 58.0818 56.0564 58.0823 55.796C58.0828 55.6666 58.0578 55.5383 58.0088 55.4186C57.9597 55.2988 57.8875 55.1899 57.7964 55.098C57.7052 55.0061 57.5968 54.9331 57.4774 54.8831C57.3581 54.8331 57.23 54.8071 57.1006 54.8066H55.1717V17.8255C55.1707 17.5654 55.0669 17.3163 54.883 17.1325C54.6991 16.9486 54.45 16.8448 54.19 16.8438H46.1069ZM47.0887 18.815H53.2005V54.8066H47.0887V18.815ZM33.3307 28.0703H39.4426V54.8066H33.3307V28.0703ZM19.5651 33.3583H25.677V54.8066H19.5651V33.3583ZM5.80137 36.5827H11.919V54.8066H5.80137V36.5827Z" fill="#828282"/>
<path id="Vector_2" d="M49.3999 0.220969C49.3415 0.224745 49.2835 0.233721 49.2267 0.247789L40.1619 2.48078C39.9081 2.54358 39.6897 2.7046 39.5547 2.92842C39.4197 3.15225 39.3791 3.42054 39.4419 3.67428C39.5047 3.92802 39.6657 4.14642 39.8896 4.28143C40.1134 4.41645 40.3817 4.45702 40.6354 4.39423L47.3248 2.74451C39.6961 16.9026 23.1556 26.5046 4.43973 27.4788C4.31007 27.4856 4.18304 27.5181 4.06595 27.5742C3.94886 27.6303 3.84401 27.7091 3.75743 27.8058C3.67085 27.9026 3.60425 28.0155 3.56145 28.1381C3.51865 28.2607 3.5005 28.3906 3.50804 28.5202C3.52198 28.7807 3.63861 29.025 3.83237 29.1996C4.02614 29.3743 4.28123 29.465 4.54175 29.4519C23.8341 28.4479 40.9863 18.589 49.0188 3.75718L50.5145 10.5351C50.5711 10.7896 50.7263 11.0113 50.946 11.1516C51.1657 11.292 51.4321 11.3395 51.6868 11.2839C51.9409 11.2273 52.1623 11.0724 52.3025 10.8531C52.4428 10.6338 52.4907 10.368 52.4356 10.1135L50.4279 0.989042C50.3764 0.759379 50.2445 0.555698 50.056 0.414826C49.8675 0.273955 49.6347 0.205191 49.3999 0.220969Z" fill="#EB5757"/>
</g>
</svg>
