<svg width="33" height="32" viewBox="0 0 33 32" fill="none" xmlns="http://www.w3.org/2000/svg">
<path d="M0.987915 2.29225C0.987915 1.027 2.04757 0 3.35381 0H30.6341C31.9409 0 33 1.027 33 2.29225V29.7081C33 30.9737 31.9409 32 30.6341 32H3.35381C2.04769 32 0.987915 30.9739 0.987915 29.7085V2.29187V2.29225Z" fill="#006699"/>
<path d="M12.4553 23.311V12.5926H8.89135V23.311H12.4557H12.4553ZM10.6741 11.1295C11.9166 11.1295 12.6902 10.3064 12.6902 9.27786C12.667 8.22585 11.9166 7.42578 10.6977 7.42578C9.47793 7.42578 8.68127 8.22585 8.68127 9.27777C8.68127 10.3063 9.45458 11.1294 10.6507 11.1294H10.6738L10.6741 11.1295ZM14.428 23.311H17.9917V17.326C17.9917 17.0061 18.0149 16.6853 18.1091 16.4568C18.3666 15.8165 18.953 15.1537 19.9378 15.1537C21.227 15.1537 21.7431 16.1365 21.7431 17.5776V23.311H25.3067V17.1654C25.3067 13.8733 23.5487 12.3413 21.204 12.3413C19.2816 12.3413 18.4373 13.4154 17.9682 14.1469H17.992V12.593H14.4282C14.4747 13.5985 14.4279 23.3113 14.4279 23.3113L14.428 23.311Z" fill="white"/>
</svg>
