<svg width="233" height="49" viewBox="0 0 233 49" fill="none" xmlns="http://www.w3.org/2000/svg">
<g id="Group 228">
<g id="Group 15954">
<g id="TOGETHER WE GROW" opacity="0.8">
<path d="M10.0471 42.1861V48.9084H9.16987V42.1861H10.0471ZM12.2079 42.1861V42.9156H7.01373V42.1861H12.2079Z" fill="white"/>
<path d="M26.7048 45.3349V45.7596C26.7048 46.2644 26.6417 46.7169 26.5155 47.117C26.3893 47.5172 26.2077 47.8573 25.9707 48.1374C25.7337 48.4175 25.449 48.6314 25.1166 48.7792C24.7872 48.9269 24.4179 49.0008 24.0085 49.0008C23.6114 49.0008 23.2467 48.9269 22.9143 48.7792C22.5849 48.6314 22.2987 48.4175 22.0555 48.1374C21.8154 47.8573 21.6292 47.5172 21.4969 47.117C21.3645 46.7169 21.2983 46.2644 21.2983 45.7596V45.3349C21.2983 44.8301 21.363 44.3792 21.4922 43.9821C21.6246 43.582 21.8108 43.2418 22.0509 42.9617C22.291 42.6786 22.5757 42.4631 22.905 42.3154C23.2375 42.1676 23.6022 42.0938 23.9993 42.0938C24.4086 42.0938 24.778 42.1676 25.1073 42.3154C25.4398 42.4631 25.7245 42.6786 25.9615 42.9617C26.2016 43.2418 26.3847 43.582 26.5109 43.9821C26.6402 44.3792 26.7048 44.8301 26.7048 45.3349ZM25.823 45.7596V45.3256C25.823 44.9255 25.7814 44.5715 25.6983 44.2637C25.6183 43.9559 25.4998 43.6974 25.3428 43.4881C25.1858 43.2788 24.9935 43.1203 24.7657 43.0125C24.541 42.9048 24.2855 42.8509 23.9993 42.8509C23.7222 42.8509 23.4714 42.9048 23.2467 43.0125C23.0251 43.1203 22.8342 43.2788 22.6742 43.4881C22.5172 43.6974 22.3956 43.9559 22.3094 44.2637C22.2233 44.5715 22.1802 44.9255 22.1802 45.3256V45.7596C22.1802 46.1629 22.2233 46.5199 22.3094 46.8308C22.3956 47.1386 22.5188 47.3987 22.6788 47.6111C22.8419 47.8204 23.0343 47.9789 23.2559 48.0866C23.4806 48.1943 23.7315 48.2482 24.0085 48.2482C24.2978 48.2482 24.5548 48.1943 24.7795 48.0866C25.0042 47.9789 25.1935 47.8204 25.3474 47.6111C25.5044 47.3987 25.6229 47.1386 25.7029 46.8308C25.783 46.5199 25.823 46.1629 25.823 45.7596Z" fill="white"/>
<path d="M41.4604 45.5611V48.022C41.3772 48.1451 41.2449 48.2836 41.0633 48.4375C40.8817 48.5883 40.6308 48.7207 40.3107 48.8346C39.9937 48.9454 39.5843 49.0008 39.0826 49.0008C38.6732 49.0008 38.2962 48.93 37.9514 48.7884C37.6098 48.6437 37.3127 48.4344 37.0604 48.1605C36.811 47.8835 36.6171 47.548 36.4786 47.154C36.3432 46.7569 36.2755 46.3075 36.2755 45.8058V45.2841C36.2755 44.7824 36.3339 44.3345 36.4509 43.9405C36.571 43.5466 36.7464 43.2126 36.9772 42.9387C37.2081 42.6616 37.4913 42.4523 37.8268 42.3107C38.1623 42.1661 38.547 42.0938 38.981 42.0938C39.4951 42.0938 39.9244 42.183 40.2692 42.3615C40.617 42.537 40.8878 42.7801 41.0818 43.091C41.2788 43.4019 41.4049 43.7559 41.4604 44.1529H40.5693C40.5293 43.9098 40.4492 43.6882 40.3292 43.4881C40.2122 43.288 40.0445 43.128 39.8259 43.0079C39.6074 42.8848 39.3258 42.8232 38.981 42.8232C38.6701 42.8232 38.4008 42.8802 38.173 42.9941C37.9453 43.108 37.7575 43.2711 37.6098 43.4835C37.462 43.6958 37.3512 43.9529 37.2774 44.2545C37.2066 44.5561 37.1712 44.8963 37.1712 45.2749V45.8058C37.1712 46.1936 37.2158 46.5399 37.3051 46.8446C37.3974 47.1494 37.5282 47.4095 37.6975 47.6249C37.8668 47.8373 38.0684 47.9989 38.3023 48.1097C38.5393 48.2205 38.801 48.2759 39.0872 48.2759C39.4043 48.2759 39.6613 48.2497 39.8583 48.1974C40.0552 48.142 40.2091 48.0774 40.32 48.0035C40.4308 47.9266 40.5154 47.8542 40.5739 47.7865V46.2814H39.018V45.5611H41.4604Z" fill="white"/>
<path d="M55.6618 48.1836V48.9084H52.1021V48.1836H55.6618ZM52.2822 42.1861V48.9084H51.3911V42.1861H52.2822ZM55.1909 45.0763V45.8012H52.1021V45.0763H55.1909ZM55.6157 42.1861V42.9156H52.1021V42.1861H55.6157Z" fill="white"/>
<path d="M67.7949 42.1861V48.9084H66.9177V42.1861H67.7949ZM69.9557 42.1861V42.9156H64.7615V42.1861H69.9557Z" fill="white"/>
<path d="M83.797 45.0763V45.8012H80.1588V45.0763H83.797ZM80.2973 42.1861V48.9084H79.4062V42.1861H80.2973ZM84.5727 42.1861V48.9084H83.6862V42.1861H84.5727Z" fill="white"/>
<path d="M98.8803 48.1836V48.9084H95.3206V48.1836H98.8803ZM95.5007 42.1861V48.9084H94.6096V42.1861H95.5007ZM98.4094 45.0763V45.8012H95.3206V45.0763H98.4094ZM98.8342 42.1861V42.9156H95.3206V42.1861H98.8342Z" fill="white"/>
<path d="M108.437 42.1861H110.663C111.167 42.1861 111.594 42.263 111.941 42.4169C112.292 42.5708 112.559 42.7986 112.74 43.1003C112.925 43.3988 113.017 43.7666 113.017 44.2037C113.017 44.5115 112.954 44.7932 112.828 45.0486C112.705 45.301 112.526 45.5165 112.292 45.695C112.061 45.8705 111.784 46.0013 111.461 46.0875L111.212 46.1844H109.12L109.111 45.4595H110.69C111.01 45.4595 111.277 45.4041 111.489 45.2933C111.701 45.1794 111.861 45.0271 111.969 44.8362C112.077 44.6454 112.131 44.4346 112.131 44.2037C112.131 43.9452 112.08 43.7189 111.978 43.525C111.877 43.3311 111.717 43.1818 111.498 43.0772C111.283 42.9694 111.004 42.9156 110.663 42.9156H109.328V48.9084H108.437V42.1861ZM112.366 48.9084L110.732 45.8612L111.66 45.8566L113.317 48.853V48.9084H112.366Z" fill="white"/>
<path d="M135.284 46.877L136.618 42.1861H137.265L136.891 44.0098L135.455 48.9084H134.813L135.284 46.877ZM133.904 42.1861L134.966 46.7846L135.284 48.9084H134.647L133.017 42.1861H133.904ZM138.992 46.78L140.03 42.1861H140.922L139.296 48.9084H138.659L138.992 46.78ZM137.362 42.1861L138.659 46.877L139.13 48.9084H138.488L137.103 44.0098L136.725 42.1861H137.362Z" fill="white"/>
<path d="M154.634 48.1836V48.9084H151.074V48.1836H154.634ZM151.254 42.1861V48.9084H150.363V42.1861H151.254ZM154.163 45.0763V45.8012H151.074V45.0763H154.163ZM154.587 42.1861V42.9156H151.074V42.1861H154.587Z" fill="white"/>
<path d="M179.957 45.5611V48.022C179.874 48.1451 179.742 48.2836 179.56 48.4375C179.378 48.5883 179.128 48.7207 178.807 48.8346C178.49 48.9454 178.081 49.0008 177.579 49.0008C177.17 49.0008 176.793 48.93 176.448 48.7884C176.106 48.6437 175.809 48.4344 175.557 48.1605C175.308 47.8835 175.114 47.548 174.975 47.154C174.84 46.7569 174.772 46.3075 174.772 45.8058V45.2841C174.772 44.7824 174.831 44.3345 174.948 43.9405C175.068 43.5466 175.243 43.2126 175.474 42.9387C175.705 42.6616 175.988 42.4523 176.323 42.3107C176.659 42.1661 177.044 42.0938 177.478 42.0938C177.992 42.0938 178.421 42.183 178.766 42.3615C179.114 42.537 179.385 42.7801 179.578 43.091C179.775 43.4019 179.902 43.7559 179.957 44.1529H179.066C179.026 43.9098 178.946 43.6882 178.826 43.4881C178.709 43.288 178.541 43.128 178.323 43.0079C178.104 42.8848 177.822 42.8232 177.478 42.8232C177.167 42.8232 176.898 42.8802 176.67 42.9941C176.442 43.108 176.254 43.2711 176.106 43.4835C175.959 43.6958 175.848 43.9529 175.774 44.2545C175.703 44.5561 175.668 44.8963 175.668 45.2749V45.8058C175.668 46.1936 175.712 46.5399 175.802 46.8446C175.894 47.1494 176.025 47.4095 176.194 47.6249C176.363 47.8373 176.565 47.9989 176.799 48.1097C177.036 48.2205 177.298 48.2759 177.584 48.2759C177.901 48.2759 178.158 48.2497 178.355 48.1974C178.552 48.142 178.706 48.0774 178.817 48.0035C178.927 47.9266 179.012 47.8542 179.071 47.7865V46.2814H177.515V45.5611H179.957Z" fill="white"/>
<path d="M189.888 42.1861H192.113C192.618 42.1861 193.044 42.263 193.392 42.4169C193.743 42.5708 194.009 42.7986 194.191 43.1003C194.376 43.3988 194.468 43.7666 194.468 44.2037C194.468 44.5115 194.405 44.7932 194.279 45.0486C194.155 45.301 193.977 45.5165 193.743 45.695C193.512 45.8705 193.235 46.0013 192.912 46.0875L192.663 46.1844H190.571L190.562 45.4595H192.141C192.461 45.4595 192.727 45.4041 192.94 45.2933C193.152 45.1794 193.312 45.0271 193.42 44.8362C193.528 44.6454 193.581 44.4346 193.581 44.2037C193.581 43.9452 193.531 43.7189 193.429 43.525C193.327 43.3311 193.167 43.1818 192.949 43.0772C192.733 42.9694 192.455 42.9156 192.113 42.9156H190.779V48.9084H189.888V42.1861ZM193.817 48.9084L192.182 45.8612L193.11 45.8566L194.768 48.853V48.9084H193.817Z" fill="white"/>
<path d="M209.343 45.3349V45.7596C209.343 46.2644 209.28 46.7169 209.154 47.117C209.028 47.5172 208.846 47.8573 208.609 48.1374C208.372 48.4175 208.088 48.6314 207.755 48.7792C207.426 48.9269 207.056 49.0008 206.647 49.0008C206.25 49.0008 205.885 48.9269 205.553 48.7792C205.224 48.6314 204.937 48.4175 204.694 48.1374C204.454 47.8573 204.268 47.5172 204.135 47.117C204.003 46.7169 203.937 46.2644 203.937 45.7596V45.3349C203.937 44.8301 204.002 44.3792 204.131 43.9821C204.263 43.582 204.449 43.2418 204.689 42.9617C204.93 42.6786 205.214 42.4631 205.544 42.3154C205.876 42.1676 206.241 42.0938 206.638 42.0938C207.047 42.0938 207.417 42.1676 207.746 42.3154C208.078 42.4631 208.363 42.6786 208.6 42.9617C208.84 43.2418 209.023 43.582 209.15 43.9821C209.279 44.3792 209.343 44.8301 209.343 45.3349ZM208.462 45.7596V45.3256C208.462 44.9255 208.42 44.5715 208.337 44.2637C208.257 43.9559 208.138 43.6974 207.981 43.4881C207.824 43.2788 207.632 43.1203 207.404 43.0125C207.18 42.9048 206.924 42.8509 206.638 42.8509C206.361 42.8509 206.11 42.9048 205.885 43.0125C205.664 43.1203 205.473 43.2788 205.313 43.4881C205.156 43.6974 205.034 43.9559 204.948 44.2637C204.862 44.5715 204.819 44.9255 204.819 45.3256V45.7596C204.819 46.1629 204.862 46.5199 204.948 46.8308C205.034 47.1386 205.157 47.3987 205.317 47.6111C205.481 47.8204 205.673 47.9789 205.895 48.0866C206.119 48.1943 206.37 48.2482 206.647 48.2482C206.936 48.2482 207.193 48.1943 207.418 48.0866C207.643 47.9789 207.832 47.8204 207.986 47.6111C208.143 47.3987 208.262 47.1386 208.342 46.8308C208.422 46.5199 208.462 46.1629 208.462 45.7596Z" fill="white"/>
<path d="M220.899 46.877L222.234 42.1861H222.88L222.506 44.0098L221.07 48.9084H220.428L220.899 46.877ZM219.519 42.1861L220.581 46.7846L220.899 48.9084H220.262L218.632 42.1861H219.519ZM224.607 46.78L225.646 42.1861H226.537L224.912 48.9084H224.274L224.607 46.78ZM222.977 42.1861L224.274 46.877L224.745 48.9084H224.104L222.718 44.0098L222.34 42.1861H222.977Z" fill="white"/>
</g>
<path id="Ellipse 74" d="M162.519 9.11015C168.594 9.11015 173.519 14.0348 173.519 20.1098C173.519 26.1847 168.594 31.1094 162.519 31.1094C156.444 31.1094 151.519 26.1847 151.519 20.1098C151.519 14.0348 156.444 9.11015 162.519 9.11015ZM162.519 25.6181C165.561 25.6181 168.027 23.1519 168.027 20.1098C168.027 17.0676 165.561 14.6014 162.519 14.6014C159.477 14.6014 157.011 17.0676 157.011 20.1098C157.011 23.1519 159.477 25.6181 162.519 25.6181Z" fill="#F28521"/>
<g id="llar">
<path d="M182.436 1.27734V30.4079H176.584V1.27734H182.436Z" fill="#F28521"/>
<path d="M192.472 1.27734V30.4079H186.621V1.27734H192.472Z" fill="#F28521"/>
<path d="M195.554 23.1877C195.554 18.5802 198.91 16.2765 205.623 16.2765C207.198 16.2765 208.773 16.4237 210.348 16.7181V14.9737C210.348 12.8982 208.854 11.8604 205.866 11.8604C203.334 11.8604 200.522 12.2284 197.431 12.9644V8.32755C200.522 7.59154 203.334 7.22353 205.866 7.22353C212.755 7.22353 216.199 9.77014 216.199 14.8633V30.4079H212.799L210.723 28.3324C208.707 29.7161 206.484 30.4079 204.055 30.4079C198.388 30.4079 195.554 28.0012 195.554 23.1877ZM210.348 20.6926C208.876 20.3982 207.301 20.251 205.623 20.251C202.811 20.251 201.405 21.2078 201.405 23.1214C201.405 25.1822 202.583 26.2127 204.938 26.2127C206.881 26.2127 208.684 25.6091 210.348 24.4021V20.6926Z" fill="#F28521"/>
<path d="M220.385 30.4079V7.22353H224.911L225.64 10.1823C227.671 8.20979 229.82 7.22353 232.087 7.22353V11.9487C229.909 11.9487 227.958 12.854 226.236 14.6646V30.4079H220.385Z" fill="#F28521"/>
</g>
<path id="Ellipse 75" d="M150.606 29.2673C148.327 30.4793 145.773 31.0816 143.193 31.0157C140.612 30.9497 138.093 30.2178 135.879 28.8909C133.665 27.564 131.831 25.6873 130.557 23.4428C129.282 21.1984 128.609 18.6625 128.604 16.0813C128.598 13.5002 129.26 10.9614 130.525 8.71143C131.79 6.46148 133.615 4.5768 135.823 3.24032C138.031 1.90385 140.548 1.16098 143.128 1.08384C145.708 1.00669 148.264 1.59789 150.548 2.80004L147.853 7.92154C146.451 7.18409 144.883 6.82143 143.301 6.86875C141.718 6.91608 140.174 7.37178 138.82 8.19162C137.465 9.01146 136.346 10.1676 135.57 11.5478C134.794 12.928 134.388 14.4854 134.391 16.0688C134.394 17.6522 134.807 19.2078 135.589 20.5846C136.371 21.9614 137.496 23.1127 138.854 23.9266C140.212 24.7406 141.758 25.1896 143.341 25.23C144.923 25.2705 146.49 24.901 147.888 24.1575L150.606 29.2673Z" fill="#F28521"/>
<g id="ream">
<path d="M28.0892 30.4071V7.22266H32.6157L33.3444 10.1814C35.3758 8.20891 37.5249 7.22266 39.7918 7.22266V11.9479C37.6132 11.9479 35.6628 12.8532 33.9405 14.6637V30.4071H28.0892Z" fill="#2B455E"/>
<path d="M51.9811 7.22266C59.0174 7.22266 62.5355 10.8144 62.5355 17.9979C62.5355 18.9547 62.4693 19.9115 62.3368 20.8683H46.9468C46.9468 24.1362 49.3462 25.7702 54.145 25.7702C56.4855 25.7702 58.826 25.5494 61.1665 25.1078V29.7447C59.1204 30.1863 56.6327 30.4071 53.7034 30.4071C45.2981 30.4071 41.0955 26.4547 41.0955 18.5499C41.0955 10.9984 44.724 7.22266 51.9811 7.22266ZM46.9468 16.8055H56.8388V16.6289C56.8388 13.4199 55.2196 11.8154 51.9811 11.8154C48.8898 11.8154 47.2117 13.4788 46.9468 16.8055Z" fill="#2B455E"/>
<path d="M64.9211 23.1868C64.9211 18.5793 68.2773 16.2756 74.9897 16.2756C76.5648 16.2756 78.1399 16.4228 79.7149 16.7172V14.9729C79.7149 12.8973 78.2208 11.8595 75.2326 11.8595C72.7007 11.8595 69.8892 12.2275 66.7979 12.9636V8.32668C69.8892 7.59066 72.7007 7.22266 75.2326 7.22266C82.1217 7.22266 85.5662 9.76926 85.5662 14.8625V30.4071H82.1659L80.0903 28.3315C78.0736 29.7152 75.8509 30.4071 73.422 30.4071C67.7547 30.4071 64.9211 28.0003 64.9211 23.1868ZM79.7149 20.6917C78.2429 20.3973 76.6679 20.2501 74.9897 20.2501C72.1782 20.2501 70.7724 21.2069 70.7724 23.1205C70.7724 25.1814 71.95 26.2118 74.3052 26.2118C76.2483 26.2118 78.0516 25.6083 79.7149 24.4012V20.6917Z" fill="#2B455E"/>
<path d="M90.204 30.4071V7.22266H94.7305L95.415 10.5789C97.4905 8.3414 99.9856 7.22266 102.9 7.22266C105.815 7.22266 107.809 8.28252 108.884 10.4022C111.254 8.28252 113.734 7.22266 116.325 7.22266C121.654 7.22266 124.318 10.1593 124.318 16.0327V30.4071H118.467V15.8119C118.467 13.2359 117.304 11.9479 114.978 11.9479C113.241 11.9479 111.57 12.728 109.966 14.2884V30.4071H104.115V15.8782C104.115 13.258 103.04 11.9479 100.891 11.9479C99.1834 11.9479 97.5715 12.728 96.0553 14.2884V30.4071H90.204Z" fill="#2B455E"/>
</g>
<path id="Ellipse 76" d="M24.11 29.2673C21.8311 30.4793 19.2775 31.0816 16.6972 31.0157C14.1169 30.9497 11.5974 30.2178 9.38339 28.8909C7.16936 27.564 5.33599 25.6873 4.06124 23.4428C2.78648 21.1984 2.11365 18.6625 2.10805 16.0813C2.10245 13.5002 2.76427 10.9614 4.02927 8.71143C5.29427 6.46148 7.11947 4.5768 9.32772 3.24032C11.536 1.90385 14.0522 1.16098 16.6322 1.08384C19.2123 1.00669 21.7684 1.59789 24.0526 2.80004L21.3571 7.92154C19.9559 7.18409 18.3879 6.82143 16.8052 6.86875C15.2225 6.91608 13.679 7.37178 12.3243 8.19162C10.9697 9.01146 9.85008 10.1676 9.07408 11.5478C8.29808 12.928 7.8921 14.4854 7.89553 16.0688C7.89897 17.6522 8.31171 19.2078 9.09369 20.5846C9.87568 21.9614 11.0003 23.1127 12.3585 23.9266C13.7167 24.7406 15.2622 25.1896 16.8451 25.23C18.4279 25.2705 19.9944 24.901 21.3924 24.1575L24.11 29.2673Z" fill="#2B455E"/>
</g>
</g>
</svg>
